<svg xmlns="http://www.w3.org/2000/svg" xmlns:xlink="http://www.w3.org/1999/xlink" width="316.728" height="407.251" viewBox="0 0 316.728 407.251"><defs><clipPath id="a"><path d="M0,0H316.728V-407.251H0Z" fill="none"/></clipPath><clipPath id="b"><rect width="50.015" height="53.144" transform="translate(42.939 -400.446)" fill="none"/></clipPath><clipPath id="c"><rect width="42.596" height="31.209" transform="translate(1.722 -384.443)" fill="none"/></clipPath><clipPath id="d"><rect width="45.809" height="16.665" transform="translate(-9.037 -339.091)" fill="none"/></clipPath><clipPath id="e"><rect width="37.171" height="19.318" transform="translate(65.333 -329.32)" fill="none"/></clipPath><clipPath id="f"><rect width="55.307" height="16.108" transform="translate(40.032 -290.354)" fill="none"/></clipPath></defs><g transform="translate(0 407.251)"><g clip-path="url(#a)"><g opacity="0.8"><g clip-path="url(#b)"><g transform="translate(83.187 -354.178)"><path d="M0,0C.929-4.518-9.888-13.012-11.709-14.777a84.687,84.687,0,0,1-15.01-15.211,3.625,3.625,0,0,0-1.3-3.405c-.666.164-1.334.33-2,.493" fill="none" stroke="#75bcbf" stroke-width="1"/></g></g></g><g transform="translate(130.474 -407.223)"><path d="M0,0A8.865,8.865,0,0,1,7.211,3.244C8.592,4.859,10.7,8.3,10.375,10.674A6.433,6.433,0,0,1,8.238,14c-.511.508-1.013.473-1.487.988-.62.672-.855,1.606-1.473,2.285-.54.6-2.771,2.9-3.234,3.428a14.8,14.8,0,0,1-3.9,3.156c-1.947,1.1-3.8,1.807-5.589,3.342-1.389,1.193-3.326,1.723-4.6,2.811-1.313,1.125-3.282,6.107-3.687,7.468a31.372,31.372,0,0,0-.6,3.836,57.151,57.151,0,0,0,0,13.426c.337,2.695,2.088,3.694,3.424,5.811,2.369,3.754,4.978,7.865,8.548,10.627,3.329,2.576,8.317,5.267,12.419,6.093,2.488.5,8.947,3.039,10.851,3.614C23.2,82.18,27.624,83.5,32.035,84.85A47.432,47.432,0,0,1,44.91,91.078a91.867,91.867,0,0,0,12.778,6.533c3.1,1.352,5.956,2.9,8.965,4.33,4.636,2.2,10.359.659,15.22,1.954,3.295.876,3.43,2.345,5.191,4.978,1.19,1.781-.492.19,1.285,1.695a27.272,27.272,0,0,1,2.916,2.332,39.856,39.856,0,0,0,8.116,6.391c1.527.969,3.122,1.875,4.561,2.973,1.41,1.076,4.3,2.256,5.267,3.715,1.187,1.791.806,5.089,1.64,7.107a22.837,22.837,0,0,0,5.463,8.1c2.385,2.172,5.406,3.309,7.9,5.434a14.542,14.542,0,0,1,4.833,9.664c.7,6.026-.516,11.912-.5,17.885.008,2.8-.084,4.867,1.05,7.449a48.3,48.3,0,0,0,5.981,10.61c1.13,1.427,2.584,2.5,3.744,3.912,1.927,2.349,3.454,5.082,5.224,7.548a97.8,97.8,0,0,0,8.759,9.92,78.441,78.441,0,0,1,8.245,9.61c2.332,3.5,4.293,6.886,6.364,10.5,3.765,6.574,7.445,12.806,9.552,20.111,2.362,8.186,5.547,16.285,7.506,24.689,1.108,4.752.945,9.315.946,14.168q0,11.317,0,22.633c0,6.254.935,13.406-.3,19.584-.951,4.74-4.563,7.686-6.856,11.664-1.867,3.242-4.468,5.7-4.442,9.387.042,5.953-.042,11.908,0,17.861.033,4.772-2,8.016-6.958,8.662a86.09,86.09,0,0,0-8.978,1.227,5.45,5.45,0,0,1-2.522.4c-3.508-.394-3.508-5.259-3.513-8.111-.007-4.172,1.344-8.023,1.291-12.223-.045-3.519-.036-7.043-.015-10.56.017-2.7-.157-2.8-2.037-4.645-1.237-1.211-2.171-2.953-4.259-2.179-1.715.636-3.12,2.927-4.446,4.164-.84.783-1.825,1.291-2.616,2.168-.634.705-.887,1.361-1.334,1.916-1.1,1.361-2.775,2.629-3.526,4.215-.483,1.023-.627,2.6-1.028,3.7a27.046,27.046,0,0,0-2.078,9.738c-.109,7.158.69,14.678.04,21.8a13.259,13.259,0,0,1-.522,2.633c-.157,1.318.341,3.5-.158,4.709-.569,1.375-2.354,2.486-3.44,3.445-1.128,1-.346,1.225-1.966,1.871-2.346.936-6.114.193-8.55.193-3.6,0-7.839.8-11.073-1.033-5.135-2.908-10.859-3.471-16.208-6.039-2.186-1.051-2.471-1.687-2.666-4.221a30.785,30.785,0,0,1,1.963-14.476c1.564-4,3.565-8.363,4.735-12.494,1.548-5.461-1.421-10.869-3.641-15.668-3.832-8.285-8.444-16.817-9.94-25.828-.467,2.121-3.542,5.291-5.041,6.986-2.065,2.336-4.444,5.215-7.107,6.871-.954.594-2.028.732-2.821,1.725-.681.851-.669,1.99-1.159,2.914a22.351,22.351,0,0,0-1.477,2.568c-1.754,5.152,5.85,6.344,9.03,7.367,1.9.612,5.544,1.768,6.826,3.332.684.834.554,2.059.8,3.127.436,1.865.995,3.057.959,5.031-.1,5.6.788,11.467-1.142,16.778-1.5,4.119-3.794,5.822-7.308,8.336-3.7,2.646-6.748,4.674-11.341,4.693-3.144.016-5.489,0-8.163-2.031-3.591-2.727-3.281-7.787-3.426-11.947a35.111,35.111,0,0,1,.52-4.239c.02-.269.376-.935.346-1.2-.235-2.107-6.781-4.287-8.46-4.947-2.776-1.09-6.438-2.223-8.617-4.422-2.274-2.3-3.563-7.461-3.971-10.492-.774-5.764-.17-11.91-.164-17.729,0-2.482-.244-5.072-.111-7.551.2-3.7,1.962-7.488,2.853-11.084.807-3.257,2.512-6.291,3.508-9.529a112.225,112.225,0,0,0,3.138-14.81c1.348-8.207,5.223-15.912,6.928-23.948,1.835-8.644.927-18.033.927-26.843V194.535c0-1.8.939-6.994.1-8.9-.653-1.483-5-3.229-6.321-4.219-2.565-1.916-4.136-4.75-6.337-7.037-2.7-2.809-5.511-4.479-7.444-7.959-1.783-3.209-.82-4.875-.676-8.287a11.445,11.445,0,0,0-3.4-9.045c-1.44-1.528-2.83-3.313-4.325-4.758-1.407-1.361-3.226-1.643-5.018-2.412a20.973,20.973,0,0,0-4.726-1.5c-2.024-.336-4.1-.414-6.166-.662-2.681-.322-2.217-1.426-1.034-3.492,1.466-2.563,3.481-3.877,6.142-5.09,2.159-.985,5.266-.239,6.476-2.791.666-1.4.561-.037.1-1.557-.37-1.213-2.7-3.142-3.539-3.828-2.026-1.654-4.343-2.25-6.453-3.992-2.292-1.893-4.917-3.178-7.328-4.877-1.388-.977-3.689-2.492-4.71-3.891s-1.334-2.453-2.779-3.6a17.1,17.1,0,0,1-3.437-2.332,23.64,23.64,0,0,1-2.077-3.252c-1.86-1.961-4.484-3.073-6.415-5.071-3.67-3.8-5.473-8.771-8.691-12.812-2.478-3.113-5.319-5.492-6.625-9.61-.507-1.6-2.62-10.515-3.439-13.185-1.859-6.07,7.257-25.012,10.024-26.959,1.383-.973,2.305-2.4,3.818-3.385,1.153-.748,4.455-3.558,5.272-4.15A35.1,35.1,0,0,0-18.894,23.5C-16.632,21.867-5.3,16.451-4.9,15.721c1.174-1.075,2.76-1.106,3.547-2.45.371-.634.108-2.333.1-3C-1.274,8.693-2.473-.607.627,0Z" fill="#502a31"/></g><g transform="translate(168.096 -301.254)"><path d="M0,0C3.656-.334,6.958,2.057,10.63,2.256c2.851.152,5.648-.115,8.495.387,3.514.621,6.68,2.627,9.974,3.916,3.779,1.48,7.643,3.33,11.783,3.492a18.615,18.615,0,0,1,5.226.586,20.656,20.656,0,0,0,3.263,1q1.773.2,3.548.381c1.259.439,2.021,1.576,3.178,2.255,1.785,1.049,2.675,1.487,3.5,3.432,1.208,2.838.672,6.842.606,9.986-.073,3.524-3.438,7.135-5.969,9.344-1.482,1.293-3.406,2.574-4.5,4.268-.535.83-.557,1.8-1.082,2.576a24.588,24.588,0,0,1-2.422,2.381c-1.224,1.262-1.813,1.953-3.619,2.113-3.018.27-4.033-.217-6.322-2.021-2.726-2.149-5.754-3.278-7.933-6-1.8-2.248-4.634-3.661-6.1-6.17-.99-1.692-1.325-3.323-2.505-4.936-2.157-2.947-2.588-6.6-4.723-9.674-1.86-2.677-2.769-6.027-5.854-7.541A24.049,24.049,0,0,1,1,5.859C-.568,4.105-.6,3.551-.627,1.254Z" fill="#2b2e34"/></g><g transform="translate(196.312 -283.383)"><path d="M0,0H10.216c3.906,0,6.828.127,9.071,3.707a28,28,0,0,0,2.038,2.826A15.863,15.863,0,0,1,23.11,9.771a7.719,7.719,0,0,1,.782,4.8c-.329,1.547-1.552,4-2.8,4.852-2.272,1.558-4.686,3.127-7.11,4.461-1.287.711.327.459-1.466.926a3.485,3.485,0,0,1-2.8-.577c-1.088-.677-1.748-2.17-2.546-3.119a18.468,18.468,0,0,1-1.735-1.9c-.452-.75-.3-1.158-.412-1.965-.154-1.094-.614-1.375-.99-2.465-.552-1.6-.287-3.32-.279-4.99,0-.8.43-3.029.079-3.707C3.351,5.133,1.706,5.02.908,4.068A3.535,3.535,0,0,1,0,1.566" fill="#66686d"/></g><g transform="translate(143.642 -283.383)"><path d="M0,0C.792.266,1.229,1.064,1.985,1.447c1.138.578,2.491.414,3.652,1.057.953.525.9.758,1.82.973a22.6,22.6,0,0,0,3.184-.024c1.924.143,6.346,1.377,6.853,3.633-1.137-.014-1.889.68-3.06.748-1.445.086-2.917,0-4.364,0A32.724,32.724,0,0,0,3.5,8.6c-2.828.531-5.773,1.162-8.558,1.757A5.223,5.223,0,0,0-9.02,13.4c-.144-.972-.379-2.783.211-3.621a16.2,16.2,0,0,1,2.924-2.4,31.619,31.619,0,0,0,3.219-2.69c.618-.609,1.2-.543,1.441-1.7.176-.865-.657-2.523.6-2.68Z" fill="#2b2e34"/></g><g transform="translate(163.08 -242.939)"><path d="M0,0C.946-.021,1.981.18,2.913.064,4.76-.162,6.22-1.213,8.129-1.32c6.027-.336,12.193.066,18.234.066H56.634c3.313,0,6.628.027,9.942-.012,2.235-.027,4.33-.181,6.457.662,1.456.577,2.76,1.487,4.228,2.053,4.27,1.645,7.194,6.217,9.864,9.787,2.121,2.836,3.673,5.957,5.652,8.86,1.531,2.244,1.811,5.451,2.687,8.021a18.228,18.228,0,0,1,1.29,3.615c.35,2.19.335,4.387.729,6.573a45.369,45.369,0,0,1,.99,9.015c-.052,4.92-.41,10,.1,14.9.542,5.255,1.76,10.347,2.59,15.545.389,2.441.1,4.988.687,7.392.63,2.567,1.583,5,2.119,7.613.555,2.7.587,5.442,1.407,8.069a33.381,33.381,0,0,1,1.918,9.357c.211,8.059-.2,16.049-.781,24.07-.566,7.8-.618,15.588-.517,23.407.053,4.121.241,8.1-1.222,12.054-1.32,3.567-3.59,6.315-5.891,9.272A60.147,60.147,0,0,0,87.5,202.4c-1.574,6.659-2.276,13.715-4.38,20.245a12.529,12.529,0,0,1-5.739,7.572c-1.337.748-1.995.787-3.061-.053-1.724-1.359-.878-4.3-1.385-6.312-.4-1.6-1.212-2.922-1.414-4.582a34.252,34.252,0,0,0-.147-3.87q-.551-1.291-1.035-2.613c-.728-2.941-.108-6.685-.108-9.719,0-2.824-.022-5.65.036-8.474A25.894,25.894,0,0,0,69,186.246c-.819-2.826-1.234-5.848-2.292-8.6a84.722,84.722,0,0,0-9.194-18.06c-1.74-2.455-5.878-4.531-8.928-4.24-2.068.2-3.671,1.7-5.536,2.474a23.674,23.674,0,0,0-3.695,1.723c-2.309,1.445-4.671,3.017-5.987,5.357a17.424,17.424,0,0,1-2.046,3.248c-1.245,1.5-1.162,2.108-1.188,4.051-.041,3.092-1.3,5.865-1.288,9,.008,2.047-.029,4.1,0,6.143.04,2.779-1.186,4.234-2.593,6.638-2.193,3.748-5.975,9.7-10.7,10.137a9.287,9.287,0,0,1-3.651-.115c-2.106-.867-4.229-4.945-5.016-6.846-3.7-8.93,1.036-17.8,4.151-26.012a27.371,27.371,0,0,1,5.078-8.177,53.011,53.011,0,0,0,5.284-8.3c2.99-4.982,6.755-9.551,8.75-15.064a37.826,37.826,0,0,0,1.905-13.077A101.2,101.2,0,0,0,30.978,111.6c-.561-3.518-2.353-6.383-3.168-9.742-.8-3.28-1.263-6.75-1.962-10.075-1.753-8.33-2.037-16.6-2.019-25.138.023-10.344-.39-20.637-.6-30.969A49.413,49.413,0,0,0,21.646,25.8c-.431-1.914-1.21-4.7-2.627-6.162-1.506-1.553-3.717-2.781-5.443-4.1-1.491-1.142-3.216-1.933-4.7-3.054-1.223-.926-1.9-1.9-3.2-2.733C3.436,8.309.325,7.178-1.3,5c-.812-1.09-.586-2.408-.584-3.748Z" fill="#2b2e34"/></g><g transform="translate(188.636 -346.262)"><path d="M0,0C-1.406-1.531-2.839-1.867-4.326-3.049A22.118,22.118,0,0,0-8.577-5.541c-2.611-1.246-5.178-2.422-7.722-3.828-2.28-1.264-3.778-2.236-6.417-2.674-1.568-.258-2.894-.684-4.443-1.07-2-.5-4.062-.1-6.091-.157-3.947-.107-7.678-.937-11.686-.695-1.441.086-6.881.406-8.157.58-1.9.258-4.111,1.914-5.7,3.045a19.387,19.387,0,0,0-4.563,4.569A44.589,44.589,0,0,0-66.939-.719C-67.8.932-68.67,2.656-69.518,4.2a14.162,14.162,0,0,0-1.071,2.074c-.249.83-1.229,3.42-1.415,4.223-.151.652.072,7.979.047,10.77-.031,3.574,1.851,4.953,3.943,7.539,1.934,2.392,4.538,4.07,6.606,6.207,1.814,1.875,4.6,2.955,6.778,4.357,1.167.752,13.561,8.59,15.013,9.1,1.388.49,2.786.728,4.194,1.148,1.9.565,4.227,1.348,5.53,2.979a5.316,5.316,0,0,1,.589,3.88c-.3,1.668-1.738,2.1-3.27,2.815a14.369,14.369,0,0,1-6.751,1.387c-3.035,0-6.188.283-9.2.045-3.15-.25-6.238-2.5-9.152-3.651-2.831-1.119-4.69-2.609-7.206-4.252-1.229-.8-2.275-1.7-3.457-2.527a30.966,30.966,0,0,1-3.495-2.953,67.911,67.911,0,0,1-7.671-10.705c-1.713-3.364-3.442-5.85-4.214-9.655a48.424,48.424,0,0,1-1.4-10.218c.012-2.8-.43-5.768.594-8.422.559-1.448,1.007-2.8,1.429-4.293a24.735,24.735,0,0,1,3.217-6.465,9.61,9.61,0,0,0,.693-1.959A7.2,7.2,0,0,0-77.74-6.377a57.753,57.753,0,0,1,4.722-6.74c1.557-1.393,2.822-3,4.677-3.965,2.275-1.184,3.6-2.576,6.3-2.994,1.781-.278,14.978-2.547,17.064-2.664,2.622-.149,5.309.029,7.936.029a56.234,56.234,0,0,1,11.066,2.088c1.388.609,9.841,4.111,12.789,5.393,2.395,1.041,11.3,6.218,12.471,6.89C3.635-5.85,8.317-2.709,9.753,2.369c.307,1.09,1.567,5.469,1.733,6.8a22.744,22.744,0,0,1,.3,3.558,10.063,10.063,0,0,0-2.35-4.863l-1.03-.881C7.845,6.643,6.864,4.939,5.88,4.76Z" fill="#fff"/></g><g transform="translate(131.209 -298.051)"><path d="M0,0C-8.7,0-17.383.279-26.085.32c-2.534.012-5.172-.086-7.694-.271-1.644-.119-3.2-.77-4.832-1.008a16.543,16.543,0,0,1-5.222-1.229,105.14,105.14,0,0,1-9.372-5.455c-1.616-1.058-6.866-5.744-8.188-6.976-3.3-3.072-7.932-7.748-8.965-12.16a97.829,97.829,0,0,1-1.437-12.35c0-2.234-.277-4.152.672-6.16,1.359-2.875,2.814-2.7,5.751-2.68,1.492.01,3.01-.078,4.5-.019,3.49.134,6.967,1.709,10.037,3.316,4.846,2.537,6.952,6.877,6.942,12.192,0-2.788.5-5.981-.226-8.663-1.076-4-3.682-9.664-7.468-11.828-.457-.232-2.282-1.109-2.482-1.621a20.644,20.644,0,0,0-7.319-1.523,14.188,14.188,0,0,0-3.834.105c-.544.336-3.6,1.426-4.539,1.807-1.736.82-3.827,1.793-5.495,2.76a12.635,12.635,0,0,0-2.637,2.156c-1.2,1.295-3.411,3.555-4.1,5.127-1.634,3.715-1.815,7.885-2.1,11.832-.416,5.857.322,11.578,3.316,16.8a33.61,33.61,0,0,0,4.738,6.689q1.136,1.491,2.409,2.867a56.932,56.932,0,0,0,6.236,4.205A36.259,36.259,0,0,0-59.48,1.967c4.628,1.547,9,3.554,13.6,5.152a113.013,113.013,0,0,0,19.2,4.994c7.211,1.172,15.071.428,22.36.428H13.34c1.8,0,4.962.615,6.671-.029,1.812-.686,1.624-3.008,1.373-4.737-.6-4.15-6.61-6.668-10.086-7.461C8.656-.285,5.84,0,3.135,0Z" fill="#fff"/></g><g transform="translate(204.464 -271.762)"><path d="M0,0C-.161-.84,5.428-2.545,7.384-2.16A7.409,7.409,0,0,1,10.063-.609,4.458,4.458,0,0,1,11.3,2.906c-.08.889-.321,1.526-1.751,2.178a14.25,14.25,0,0,1-6.507.754c-1.9-.277-1.707-1.6-1.924-2.318A10.681,10.681,0,0,1,.627.289" fill="#2b2e34"/></g><g transform="translate(231.426 -264.26)"><path d="M0,0C4.84,0,9.68.01,14.52,0c1.721,0,2.789-.15,4.2.613,1.066.574,3.346,1.164,3.617,2.487,1.149.193,2.064,1.566,2.877,2.226a8.34,8.34,0,0,1,2.849,3.883c1.461,4.094.838,9.109.774,13.4-.049,3.275-.862,7.064-3.121,9.359-.666.676-1.267,1.387-1.907,2.088a4.336,4.336,0,0,0-1.125.736,7.883,7.883,0,0,1-.395,1.137c-2.121,2.537-5.622,4.144-8.458,5.937-2.3,1.453-4.8,2.487-7.205,3.723-1.491.764-2.92,1.863-4.6,2.1-2.135.3-2.491-.708-3.148-2.545-2.6-7.276-1.705-15.178-1.705-22.885V9.27a39.322,39.322,0,0,1-.007-4.9A4.772,4.772,0,0,1-2.347,2.9,3.637,3.637,0,0,0-1.881.627Z" fill="#7a4342"/></g><g opacity="0.8"><g clip-path="url(#c)"><g transform="translate(35.315 -354.734)"><path d="M0,0C-5.36-.025-9.653.123-14.516-2.67c-8.767-5.037-8.965-10.57-9.578-20.008" fill="none" stroke="#75bcbf" stroke-width="1"/></g></g></g><g opacity="0.8"><g clip-path="url(#d)"><g transform="translate(26.607 -325.467)"><path d="M0,0-26.52-4.676" fill="none" stroke="#75bcbf" stroke-width="1"/></g></g></g><g opacity="0.8"><g clip-path="url(#e)"><g transform="translate(93.403 -311.492)"><path d="M0,0C-5.608-1.162-16.158-2.709-18.591-10.682" fill="none" stroke="#75bcbf" stroke-width="1"/></g></g></g><g opacity="0.8"><g clip-path="url(#f)"><g transform="translate(86.339 -276.781)"><path d="M0,0C-10.46,0-31.852,4.824-36.85-6.369" fill="none" stroke="#75bcbf" stroke-width="1"/></g></g></g><g transform="translate(208.37 -268.268)"><path d="M0,0A28.7,28.7,0,0,1,3.372.066C3.149,1.543-.1,2.2-1.252,2.92c-.629-.57-1-2.678.4-2.5Z" fill="#fff"/></g><g transform="translate(208.37 -268.268)"><path d="M0,0A28.7,28.7,0,0,1,3.372.066C3.149,1.543-.1,2.2-1.252,2.92c-.629-.57-1-2.678.4-2.5Z" fill="none" stroke="#fff" stroke-width="1"/></g></g></g></svg>