<svg xmlns="http://www.w3.org/2000/svg" xmlns:xlink="http://www.w3.org/1999/xlink" width="250.492" height="185.494" viewBox="0 0 250.492 185.494"><defs><clipPath id="a"><path d="M0,0H250.492V-185.494H0Z" fill="none"/></clipPath></defs><g transform="translate(0 185.494)"><g clip-path="url(#a)"><g transform="translate(245.207 -91.566)"><path d="M0,0C-4.606,0-9.154.208-13.76.208c-3.771,0-8.68-.805-12.132.753-2.472,1.115-4.622,2.706-7.164,3.655a74.892,74.892,0,0,0-8.593,3.389c-5.906,3.046-12.2,4.657-18.471,6.688a58.936,58.936,0,0,1-10.147,2.648c-3.016.427-6.174.951-9.169,1.591A67.646,67.646,0,0,1-94.127,20.05c-3.851-.018-7.11.829-10.862,1.1-4.529.33-8.956,1.966-13.458,2.342-8.644.722-17.706-.042-26.391-.042-3.52,0-6.994.259-10.376-.567h0c-3.636-.887-7.789-.516-11.2-1.639-1.414-.467-2.635-1.162-4.052-1.656a105.729,105.729,0,0,0-11.473-3.505,95.032,95.032,0,0,1-10.254-3.062c-2.12-.742-4.085-1.94-6.2-2.684-2.056-.722-4.322-.661-6.453-1.06-7.216-1.351-14.081-3.6-21.322-4.674-1.974-.294-4.284-.041-6.168-.541-1.381-.367-2.626-1.235-4.081-1.46-.9-.139-2.858-.494-3.761-.168-1.613.582-1.249,1.3-1.28,2.845-.069,3.457.461,4.57,3.5,6.169a13.4,13.4,0,0,1,2.529,2.19c1.117.982,1.359.267,2.728.771.762.28,1.287,1.228,1.986,1.534,3.283,1.433,6.5,2.234,9.811,3.526,3.033,1.183,6.006,3.052,9.179,4.137,3.072,1.051,6.263,1.972,9.359,3.108,1.723.632,3.087,1.516,4.741,2.277,1.514.7,3.073.55,4.681,1.222,2.168.906,4.208,2.094,6.459,2.864,4.627,1.585,8.343,4.845,13.364,5.622,1.533.238,3.017-.1,4.537.028,1.542.13,2.921.573,4.5.627,3.52.12,7.076-.029,10.6-.029,6.95,0,15.172,1.059,21.827-1.261,7.872-2.743,16.653-2.15,24.893-2.141,5.413.006,10.811.135,16.165-.836,4.978-.9,10.343-.955,15.171-2.408,4.561-1.373,9.3-1.711,13.985-2.579,1.671-.309,3.919.019,5.475-.512.147-.05,1.369-1.068,1.642-1.193a42.316,42.316,0,0,1,4.322-1.57,14.616,14.616,0,0,1,4.211-.514c3.364-.168,6.031-1.345,9.265-2.3,3.894-1.151,6.768-3.744,10.5-4.971,2.254-.74,4.424-.969,6.7-1.906q2.919-1.41,5.89-2.706a12.6,12.6,0,0,0,3.144-.941A59.924,59.924,0,0,0-5.409,9.879,17.425,17.425,0,0,0-2.189,7.29c.854-.994,3.376-3.3,3.1-4.815Z" fill="#ffc5c8"/></g><g transform="translate(147.989 -170.314)"><path d="M0,0C-.32,5.9,5.781,4.1,9.117,7.948c.971,1.119,2.954,6.406,3.9,7.5,1.123,1.3,2.528,2.365,3.668,3.7,2.128,2.5,4.594,4.845,6.684,7.608,1.07,1.415,2.511,2.047,3.695,3.276,1.436,1.49,1.4,3.167,1.581,5.24.224,2.569-1.244,2.076-2.171,3.956-.889,1.805-.286,3.752-.791,5.727a29.368,29.368,0,0,1-1.147,3.094,7.981,7.981,0,0,1-1.507,2.544c-.906,1.033-.894.95-2.356.994a24.3,24.3,0,0,1-4.441-.126,15.784,15.784,0,0,1-3.05-.808c-1.565-.647-2.378-2.447-4.2-2.515-1.636-.06-1.765.735-2.451,2.025a2.228,2.228,0,0,0-.862,1.423q-.163.528-.328,1.055a1.443,1.443,0,0,1-1.122.787c-1.121,2.2-2.747,4.946-5.449,6-2.013.787-5.735,1.3-7.393.166-1.287,1.4-3.05,2-4.429,3.28-2.357,2.192-3.323,5.831-4.539,8.7a35.667,35.667,0,0,0-1.423,4.34,26.409,26.409,0,0,0-.575,4.093,14.153,14.153,0,0,1-1.337,2.709c-1.657,3.869-.77,8.543-.875,12.623-.111,4.366-2.076,8.851-3.289,13.04-1.1,3.8-1.694,7.637-2.7,11.5-.774,2.976-2.023,5.745-1.97,8.823.038,2.2.552,5.128-.1,7.242-.965.006-.845.488-1.384,1.157a12.473,12.473,0,0,1-3.712,3.376c-4.1,2.243-8.65,3.667-12.764,5.889A47.249,47.249,0,0,1-60.5,151.129a28.137,28.137,0,0,1-6.388.224c-4.77-.065-9.5.537-14.27.613-5.444.088-10.975.179-16.417,0-1-.033-3.856.15-4.746-.839-.612-.681-.52-1.574-.819-2.392a45.328,45.328,0,0,0-2.009-4.132c-1.047-2.128-2.315-4-2.576-6.392a28.212,28.212,0,0,0-1.427-6.349c-3.076-9.289-1.467-20.769.726-29.993.516-2.168.62-4.447,1.254-6.581a50.021,50.021,0,0,1,2.062-4.6c.606-1.474.126-2.471.456-3.853.225-.948,1.11-1.575,1.513-2.524.786-1.856,1.688-3.287,2.509-5.393a63.05,63.05,0,0,1,3.515-7.9c2.7-4.78,5.725-9.467,10.106-12.737a38.021,38.021,0,0,0,4.692-3.836c.791-.833,1.212-1.878,1.937-2.752,1.07-1.29,2.407-1.883,3.539-3.2.891-1.035,2.273-1.591,3.063-2.666.7-.953.582-1.925,1.445-2.762.806-.782,1.888-1.144,2.733-2.215a41.2,41.2,0,0,1,3.282-3.4,51.768,51.768,0,0,0,4.751-5.551c1.529-2.087,3.362-3.864,4.756-6.061,1.6-2.528,2.839-5.094,4.909-7.3,2.249-2.391,5.371-4.287,7.943-6.358,1.346-1.084,2.906-1.713,4.329-2.659,1.3-.865,1.694-1.863,2.761-2.886a29.647,29.647,0,0,1,5.35-4.263c.7-.387,1.476-.445,2.193-.807,2.838-1.434,5.055-4.222,7.757-5.925a39.174,39.174,0,0,1,6.005-3.328c1.264-.482,2.713-.206,4.086-.245,1.7-.048,3.232-.583,4.921-.576s2.482.7,3.783,1.867c.351.316.311.78.746,1.136.724.592,1.635.458,2.146,1.4C.67-3.085.283-1.145.283,0" fill="#e9b86a" stroke="#e9b86a" stroke-width="1"/></g><g transform="translate(160.745 -154.44)"><path d="M0,0C0-2.275,2.559-1.22.85-2.835c-.605-.572,3.527.074,2.835-.283C3.223-3.357.087-4.771-.449-5.089-1-5.416.531-6.611-.283-6.8c1.8.067,1.934.616,3.733.567,1.483-.041,2.133-.105,1.124-1.7a14.657,14.657,0,0,0-3.695-3.4c-1.729-1.152-1.87-1.853.5-2.339.185-1.359,1.115-3.093.818-4.391-1.759-.353-3.648.111-5.449-.186.7-.762,3.07-.953,2.652-2.622-2.432-.823-5.412.427-7.913-.088-2.188-.452-1.18-2.721-2.373-4.479a6.762,6.762,0,0,0-3.338-2.689,6.155,6.155,0,0,1-.019,1.968,6.345,6.345,0,0,1-2.309.14c-1.4-.4-.573-.554-1.469-1.444s-3.65-3.632-5.165-2.989c-.258,2.06-.492,3.929-.639,5.994-2.826.668-4.883-.584-7.478-1.241-4.138-1.046-2.055,1.805-2.705,4.173-.385,1.407.192.761-1.309,1.134-2.056.51-4.474-.448-6.554-.023-1.156.236-1.129-.177-1.259,1.1-.1.957.636,2.41.8,3.424-2.141,2.246-6.074,1.995-8.848,2.713-.926.24-2,.188-2.721.95-1.78,1.878.908,2.2,1.493,3.752-3.7,3.216-9.826-.037-13.554,2.7-2.644,1.943-1.2,2.883-.425,4.8C-68.3.335-71.783.632-73.254,2.3c-1.426,1.614.738,2.7,1.72,3.883-1.131.12-2.78-.355-3.842.169-.38.188-.7.864-1.131,1.118.024,1.706,2.306.849,2.461,2.258A74.666,74.666,0,0,1-90.887,23.9c1.967-.067,3.96.109,5.826-.647.755-.306,2.721-.857,3.145-1.414-5.485,2.175-9.161,6.768-12.2,11.621a26.49,26.49,0,0,1-2.764,4.01c-.922,1.013-2.6,1.971-3.04,3.31,1.886-.9,8.54-9.007,10.891-7.166.623.488-.151,2.772,1.121,2.812,1.4.044,2.056-3.741,2.776-4.578.393,1.606-.26,3.119,1.159,4.482,2.9,2.791,5.24-2.592,6.813-4.5,1.707.888,3.446,4,5.666,3.248,1.023-4.691-.446-9.985.14-14.771.848.046,1.7-.1,2.224.5a12.039,12.039,0,0,1,.364-3.78c.422-2.552.31-5.677,1.5-8.012,2.49-.547,6.647,2.209,8.431,3.526,2.276,1.679,4.36,7.482,7.3,7.762a3.216,3.216,0,0,1,2.642-1.973c1.016,4.224.631,8.921,2.186,13.244,2.248.491,4.3-4.056,5.732-5.492,1,.278.688,1.79.831,2.583.284,1.578.6,6.67,2.612,7.061a1.666,1.666,0,0,1,1.79-1.3c.768.84.25,5.187.251,5.511a116.572,116.572,0,0,0,1.47,15.827c.246,1.712,1.1,2.791,1.527,4.467.305,1.211-.21,2.686,1.181,3.288a6.278,6.278,0,0,0,.707-3.434c-.093,3.58-.013,7.17-.013,10.752,0,2.25-.84,5.771,1.089,7.413.661-4.59-.907-9.248-1.017-13.816.879,1.041,1.865,1.958,2.758,2.963,1.273,1.433,1.99,4.324,3.772,5.122.98-1.067.2-6.784.2-7.831,0-2.758-.606-6.521.065-9.263,1.461.905,1.824,3.467,2.793,4.846.044-1.567-.035-3.063.091-4.641.073-.921-.012-5.786.968-6.525,1.347-1.017,4.152.611,5.683,1.176.142-1.33-.735-5.083.644-5.561.416-.145,2.347.938,2.739,1.075.708.247,1.519.469,2.231.67.442-2.824-.734-6.354.207-9.068.774.841,1.182,2.178,2.047,2.879.782-2.329-1.146-6.25.606-8.17-.755-1.39-2.743-2.3-3.86-3.49l-.438-1.009a12.6,12.6,0,0,0-2.092-1.4,2.05,2.05,0,0,1-.615-1.745c.648-.209,1.28.018,1.956-.186-.443-.994-1.768-1.216-2.7-1.713.056-1.869,2.839-1.045,2.688-2.833a23.984,23.984,0,0,0-2.094-3.245c-.384-.706-2-2.942-1.828-3.992.384-.048,1.629.216,1.881.044.716-.488.544-2.625.347-3.362-.519-1.943-1.927-3.784-2.262-5.7,1.106-.28,2.236.025,3.347-.137.089-1.579.941-2.8,1.327-4.278a24.146,24.146,0,0,0,.212-2.416C-9.055-2.131-7.622-.038-6.317.584c.474-1.783.125-4.12.093-5.956-.041-2.342-.911-4.64-.885-6.919-.107,1.632,1.937,2.609,2.693,3.83.513.829.421,1.979,1.581,2.225Z" fill="#2b2e34"/></g><g transform="translate(160.745 -154.44)"><path d="M0,0C0-2.275,2.559-1.22.85-2.835c-.605-.572,3.527.074,2.835-.283C3.223-3.357.087-4.771-.449-5.089-1-5.416.531-6.611-.283-6.8c1.8.067,1.934.616,3.733.567,1.483-.041,2.133-.105,1.124-1.7a14.657,14.657,0,0,0-3.695-3.4c-1.729-1.152-1.87-1.853.5-2.339.185-1.359,1.115-3.093.818-4.391-1.759-.353-3.648.111-5.449-.186.7-.762,3.07-.953,2.652-2.622-2.432-.823-5.412.427-7.913-.088-2.188-.452-1.18-2.721-2.373-4.479a6.762,6.762,0,0,0-3.338-2.689,6.155,6.155,0,0,1-.019,1.968,6.345,6.345,0,0,1-2.309.14c-1.4-.4-.573-.554-1.469-1.444s-3.65-3.632-5.165-2.989c-.258,2.06-.492,3.929-.639,5.994-2.826.668-4.883-.584-7.478-1.241-4.138-1.046-2.055,1.805-2.705,4.173-.385,1.407.192.761-1.309,1.134-2.056.51-4.474-.448-6.554-.023-1.156.236-1.129-.177-1.259,1.1-.1.957.636,2.41.8,3.424-2.141,2.246-6.074,1.995-8.848,2.713-.926.24-2,.188-2.721.95-1.78,1.878.908,2.2,1.493,3.752-3.7,3.216-9.826-.037-13.554,2.7-2.644,1.943-1.2,2.883-.425,4.8C-68.3.335-71.783.632-73.254,2.3c-1.426,1.614.738,2.7,1.72,3.883-1.131.12-2.78-.355-3.842.169-.38.188-.7.864-1.131,1.118.024,1.706,2.306.849,2.461,2.258A74.666,74.666,0,0,1-90.887,23.9c1.967-.067,3.96.109,5.826-.647.755-.306,2.721-.857,3.145-1.414-5.485,2.175-9.161,6.768-12.2,11.621a26.49,26.49,0,0,1-2.764,4.01c-.922,1.013-2.6,1.971-3.04,3.31,1.886-.9,8.54-9.007,10.891-7.166.623.488-.151,2.772,1.121,2.812,1.4.044,2.056-3.741,2.776-4.578.393,1.606-.26,3.119,1.159,4.482,2.9,2.791,5.24-2.592,6.813-4.5,1.707.888,3.446,4,5.666,3.248,1.023-4.691-.446-9.985.14-14.771.848.046,1.7-.1,2.224.5a12.039,12.039,0,0,1,.364-3.78c.422-2.552.31-5.677,1.5-8.012,2.49-.547,6.647,2.209,8.431,3.526,2.276,1.679,4.36,7.482,7.3,7.762a3.216,3.216,0,0,1,2.642-1.973c1.016,4.224.631,8.921,2.186,13.244,2.248.491,4.3-4.056,5.732-5.492,1,.278.688,1.79.831,2.583.284,1.578.6,6.67,2.612,7.061a1.666,1.666,0,0,1,1.79-1.3c.768.84.25,5.187.251,5.511a116.572,116.572,0,0,0,1.47,15.827c.246,1.712,1.1,2.791,1.527,4.467.305,1.211-.21,2.686,1.181,3.288a6.278,6.278,0,0,0,.707-3.434c-.093,3.58-.013,7.17-.013,10.752,0,2.25-.84,5.771,1.089,7.413.661-4.59-.907-9.248-1.017-13.816.879,1.041,1.865,1.958,2.758,2.963,1.273,1.433,1.99,4.324,3.772,5.122.98-1.067.2-6.784.2-7.831,0-2.758-.606-6.521.065-9.263,1.461.905,1.824,3.467,2.793,4.846.044-1.567-.035-3.063.091-4.641.073-.921-.012-5.786.968-6.525,1.347-1.017,4.152.611,5.683,1.176.142-1.33-.735-5.083.644-5.561.416-.145,2.347.938,2.739,1.075.708.247,1.519.469,2.231.67.442-2.824-.734-6.354.207-9.068.774.841,1.182,2.178,2.047,2.879.782-2.329-1.146-6.25.606-8.17-.755-1.39-2.743-2.3-3.86-3.49l-.438-1.009a12.6,12.6,0,0,0-2.092-1.4,2.05,2.05,0,0,1-.615-1.745c.648-.209,1.28.018,1.956-.186-.443-.994-1.768-1.216-2.7-1.713.056-1.869,2.839-1.045,2.688-2.833a23.984,23.984,0,0,0-2.094-3.245c-.384-.706-2-2.942-1.828-3.992.384-.048,1.629.216,1.881.044.716-.488.544-2.625.347-3.362-.519-1.943-1.927-3.784-2.262-5.7,1.106-.28,2.236.025,3.347-.137.089-1.579.941-2.8,1.327-4.278a24.146,24.146,0,0,0,.212-2.416C-9.055-2.131-7.622-.038-6.317.584c.474-1.783.125-4.12.093-5.956-.041-2.342-.911-4.64-.885-6.919-.107,1.632,1.937,2.609,2.693,3.83.513.829.421,1.979,1.581,2.225Z" fill="none" stroke="#2b2e34" stroke-width="1"/></g><g transform="translate(147.989 -158.125)"><path d="M0,0A60.127,60.127,0,0,0-.072-6.606,7.425,7.425,0,0,0-1.321-10.4c-.5-.6-1.678-1.4-1.555.067-1.432.624-3.009-1.895-4.4-2.295a10,10,0,0,0-3.649-.1,13.056,13.056,0,0,1-2.16,5.711c-.2.277-.876,1.169-1.073,1.356-.375.355-1.164.373-1.47.683-.828.837.584,2.314,1.275,3.137.968,1.154.863,1.41.61,2.895A2.583,2.583,0,0,0-12.5,3.9c1.911,1.532,4.183,2.756,6.064,4.323.372-.907-3.3-5.486-1.06-5.071.728-2.445-2.74-5.135-2.035-7.7.873-.162,1.984.265,2.769-.186-.016-.66.223-2.065,1.1-1.957.087.011.617.7.757.779a4.26,4.26,0,0,0,1.312.31,7.22,7.22,0,0,0,.3,1.5c.309,1.281.894,1.646,1.63,2.635C-.767-.276-.675,1.154.02,2.509A5.693,5.693,0,0,1,.354,0Z" fill="#515858"/></g><g transform="translate(147.989 -158.125)"><path d="M0,0A60.127,60.127,0,0,0-.072-6.606,7.425,7.425,0,0,0-1.321-10.4c-.5-.6-1.678-1.4-1.555.067-1.432.624-3.009-1.895-4.4-2.295a10,10,0,0,0-3.649-.1,13.056,13.056,0,0,1-2.16,5.711c-.2.277-.876,1.169-1.073,1.356-.375.355-1.164.373-1.47.683-.828.837.584,2.314,1.275,3.137.968,1.154.863,1.41.61,2.895A2.583,2.583,0,0,0-12.5,3.9c1.911,1.532,4.183,2.756,6.064,4.323.372-.907-3.3-5.486-1.06-5.071.728-2.445-2.74-5.135-2.035-7.7.873-.162,1.984.265,2.769-.186-.016-.66.223-2.065,1.1-1.957.087.011.617.7.757.779a4.26,4.26,0,0,0,1.312.31,7.22,7.22,0,0,0,.3,1.5c.309,1.281.894,1.646,1.63,2.635C-.767-.276-.675,1.154.02,2.509A5.693,5.693,0,0,1,.354,0Z" fill="none" stroke="#515858" stroke-width="1"/></g><g transform="translate(159.611 -151.605)"><path d="M0,0H-1.68a3.155,3.155,0,0,0-.591,0c-.315.069-.181-.005-.315.284-.293.631-.435,1.641.173,2.132.362.292,1.481.522,1.881.042C-.055,1.884-.283.7-.283,0" fill="#2b2e34"/></g><g transform="translate(159.611 -151.605)"><path d="M0,0H-1.68a3.155,3.155,0,0,0-.591,0c-.315.069-.181-.005-.315.284-.293.631-.435,1.641.173,2.132.362.292,1.481.522,1.881.042C-.055,1.884-.283.7-.283,0" fill="none" stroke="#ffea3d" stroke-width="1"/></g><g transform="translate(156.351 -151.84)"><path d="M0,0H2.129c.235,0,.47,0,.706,0,.467-.007.546-.05.747.392.152.334.151.678.276,1,.108.28.414.458.511.731.136.385-.122.886.014,1.257.117.318.279.335.315.7a1,1,0,0,1,.83.733" fill="none" stroke="#2b2e34" stroke-width="0.5"/></g><g transform="translate(176.477 -135.448)"><path d="M0,0C-.614,0-1.229,0-1.843,0a3.175,3.175,0,0,0-1,.1A6.553,6.553,0,0,1-3.83.432a.973.973,0,0,1-.7-.141L-5.386-.25C-5.7-.447-6-.74-6.271-.925a.891.891,0,0,0-.794-.195A1.427,1.427,0,0,0-6.838.18c.226.228.349.129.606.238s.427.342.7.443c.095-.011.189-.019.283-.026.176.062.268.21.395.334.175.172.412.349.569.532a1.824,1.824,0,0,1,.454,1.165c.013.78.417,2.164,1.417,1.96.978-.2.871-1.752,1.964-1.87A3.806,3.806,0,0,1,0,1.846,3.905,3.905,0,0,0,.283.425Z" fill="#2b2e34"/></g><g transform="translate(176.477 -135.448)"><path d="M0,0C-.614,0-1.229,0-1.843,0a3.175,3.175,0,0,0-1,.1A6.553,6.553,0,0,1-3.83.432a.973.973,0,0,1-.7-.141L-5.386-.25C-5.7-.447-6-.74-6.271-.925a.891.891,0,0,0-.794-.195A1.427,1.427,0,0,0-6.838.18c.226.228.349.129.606.238s.427.342.7.443c.095-.011.189-.019.283-.026.176.062.268.21.395.334.175.172.412.349.569.532a1.824,1.824,0,0,1,.454,1.165c.013.78.417,2.164,1.417,1.96.978-.2.871-1.752,1.964-1.87A3.806,3.806,0,0,1,0,1.846,3.905,3.905,0,0,0,.283.425Z" fill="none" stroke="#2b2e34" stroke-width="1"/></g><g transform="translate(173.643 -130.487)"><path d="M0,0C.151.8-.943,1.559-1.459,1.987c-.584.484-1.145,1.054-1.733,1.552A6.905,6.905,0,0,1-5.169,4.5a3.159,3.159,0,0,1-1.284.326,12.59,12.59,0,0,0-1.48.029,10.6,10.6,0,0,1-2.343.117A6.632,6.632,0,0,1-12.8,4.432a2.976,2.976,0,0,1-.663-.565,3.335,3.335,0,0,0-.719-.426,1.859,1.859,0,0,1-.38-.351c-.218-.253-.252-.6-.464-.822" fill="none" stroke="#2b2e34" stroke-width="0.5"/></g><g transform="translate(168.115 -134.031)"><path d="M0,0C0,.352.622.427.722.149.882-.3.088-.142-.142-.142" fill="none" stroke="#2b2e34" stroke-width="1"/></g><g transform="translate(164.288 -133.039)"><path d="M0,0C.04.182.36.461.549.262.76.039.294-.224.142-.283" fill="none" stroke="#2b2e34" stroke-width="1"/></g><g transform="translate(167.832 -130.913)"><path d="M0,0C.159-.261.645-.273.293-.609.108-.786-.562-.837-.425-.425" fill="none" stroke="#2b2e34" stroke-width="1"/></g><g transform="translate(170.666 -130.913)"><path d="M0,0C.02-.343.4-.314.664-.283h-.1" fill="none" stroke="#2b2e34" stroke-width="1"/></g><g transform="translate(164.147 -129.92)"><path d="M0,0C-.213-.209-.146-.513-.141-.779c0,.071,0,.141,0,.212" fill="none" stroke="#2b2e34" stroke-width="1"/></g><g transform="translate(161.029 -131.763)"><path d="M0,0C.045-.312-.043-.548-.4-.55l-.024.125" fill="none" stroke="#2b2e34" stroke-width="1"/></g><g transform="translate(163.013 -134.881)"><path d="M0,0C-.426-1.133-1.009.249-.709.283" fill="none" stroke="#2b2e34" stroke-width="1"/></g><g transform="translate(148.981 -130.346)"><path d="M0,0A19.808,19.808,0,0,0,3.734-.024c.967-.2,1.855-.63,2.825-.826a12.556,12.556,0,0,1,2.2-.425,4.459,4.459,0,0,0,.734-.149c.213-.036.822.165.857-.135" fill="none" stroke="#fff" stroke-width="0.5"/></g><g transform="translate(149.832 -127.653)"><path d="M0,0C.319,0,.662.041.978.01A7.3,7.3,0,0,0,2.855-.774c.6-.236,1.2-.441,1.811-.636.411-.131.77-.308,1.166-.472.494-.2,1.014-.234,1.512-.417a7.76,7.76,0,0,1,2.719-.819,7.78,7.78,0,0,0,1.68-.024l.021-.118" fill="none" stroke="#fff" stroke-width="0.5"/></g><g transform="translate(155.217 -123.401)"><path d="M0,0C0-.271.185-.349.288-.56.406-.8.423-1.03.549-1.268A8.18,8.18,0,0,1,2.128-3.027a18.087,18.087,0,0,1,1.683-1.5c.483-.359.987-.711,1.436-1.11a3.758,3.758,0,0,0,.281-.318c.124-.133,0-.286.283-.284" fill="none" stroke="#fff" stroke-width="0.5"/></g><g transform="translate(164.855 -129.07)"><path d="M0,0C-.8-.12-1.81,1.243-2.291,1.722A6.534,6.534,0,0,0-4.107,4.487C-4.455,5.6-5.16,6.664-5.432,7.8c-.151.628-.4,1.3-.5,1.932-.145.919.046,1.823-.162,2.745" fill="none" stroke="#fff" stroke-width="0.5"/></g><g transform="translate(104.407 -106.747)"><path d="M0,0C0,2.546-.223,5.2-.008,7.731c.135,1.6.855,2.808,1.286,4.353a32.009,32.009,0,0,1,.415,4.88A31.919,31.919,0,0,1,.16,31.132c-1.007,2.829-.514,6.278-.514,9.262" fill="none" stroke="#2b2e34" stroke-width="0.5"/></g><g transform="translate(209.186 -118.911)"><path d="M0,0A10.914,10.914,0,0,0,2.841-.275c.364-.1.7-.248,1.064-.361.338-.106.775-.142,1.142-.272a10.39,10.39,0,0,0,.965-.785,2.3,2.3,0,0,0,.925-.6,6.64,6.64,0,0,1,1.6-.254c1.006-.2,1.75-.689,2.769-.909A4.03,4.03,0,0,0,10.794-6.6a8.111,8.111,0,0,0-.816-.489c-.14-.1-.256-.375-.4-.5A21.941,21.941,0,0,1,7.64-9c-.468-.5-.663-1.229-1.111-1.784-.165-.2-.424-.355-.576-.54-.2-.241-.308-.663-.562-.943A25.44,25.44,0,0,0,2.8-14.684a6.959,6.959,0,0,1-1.122-1.2c-.346-.509-.43-1.153-.817-1.644-1.42-1.805-3.883-2.3-5.889-2.961-1.9-.627-4.441-.207-6.454-.206a5.78,5.78,0,0,0-5.254,2.6c-.6.847-1.141,1.667-1.761,2.5a11.566,11.566,0,0,0-1.723,2.575c-.27.687-.031,1.324-.228,2.021-.183.648-.786,1.109-.993,1.778a6.119,6.119,0,0,0-.1,1.988c.014.987-.08,2-.023,2.982.109,1.854,1.122,3.22,1.657,4.91a8.953,8.953,0,0,1,.63,3.188c-.007,1.067,0,2.136,0,3.2,0,.856.081,1.747.007,2.6-.119,1.365-.651,2.723-.8,4.107a82.575,82.575,0,0,0-.057,8.762c0,3.1.283,6.123.283,9.226,0,1.838.1,3.707.014,5.542-.047,1.03-.265,2.055-.375,3.079-.077.722.111,2.7-.2,3.39s-.933.986-1.093,1.862a33.179,33.179,0,0,0-.332,5.98c0,4.064-.557,8.51.639,12.4.517,1.684.556,3.432,1.254,5.073.335.786.872,1.47,1.191,2.262a7.058,7.058,0,0,1,.326,2.976c-.074,2.419-.434,5.848,2.071,7.265,1.492.842,3.807.767,5.494.677,1.367-.074,2.459-.849,3.679-1.362a9.291,9.291,0,0,1,2.725-.61,5.511,5.511,0,0,1,3.116.435,10,10,0,0,0,4.008.355c.984,0,2.937.364,3.843-.036,1.307-.577,1.15-3.046-.047-3.594a10.41,10.41,0,0,1-1.03-.331c-.156-.09-.426-.387-.623-.51-.479-.3-1.129-.271-1.41-.866a6.057,6.057,0,0,1,2.458.008,10.7,10.7,0,0,1,1.219.588.934.934,0,0,0,.575.191c.311.217.366.545.622.754.778.64,2.511.406,3.479.658,1.85.481,3.421,1.538,5.3,1.783,1.416.184,2.908.786,3.429-.914.483-1.576-.082-2.511-1.388-3.47-3.385-2.487-7.884-.852-11.711-1.35-.616-1.693,1.155-3.613,1.62-5.129a13.442,13.442,0,0,0,.059-3.686c-.008-1.009.226-1.907.3-2.9a10.94,10.94,0,0,1,.27-2.584,20.42,20.42,0,0,0,.58-2.545c.077-.515-.33-2.1-.034-2.481.32-.412.672-.149,1.168.049.647.257,1.233,1.169,1.976,1.154.7-.014,1.3-.829,1.426-1.473,0-.315-.01-.629-.029-.944a6.957,6.957,0,0,1,.455-1.742,5.433,5.433,0,0,0,.126-1.488c-.011-1.023.015-2.045.006-3.068a9.694,9.694,0,0,0-.872-3.55c-.364-1.029-.47-2.115-.836-3.153-.351-1-.84-1.918-1.14-2.891-.534-1.728-2.249-2.828-3.132-4.459-.41-.757-.755-1.578-1.113-2.339a1.316,1.316,0,0,0-.5-1.129L7.4,29.306A6.714,6.714,0,0,1,7.387,27.7a2.393,2.393,0,0,0-.3-1.25,22.82,22.82,0,0,1-.33-2.406c-.143-1.235-.638-2.412-.865-3.628a18.151,18.151,0,0,1-.5-2.227,6.542,6.542,0,0,0-.943-2.872c-.476-.96-.656-2.1-1.111-3.069-.513-1.094-1.374-2.075-1.588-3.3Q1.7,8.109,1.659,7.273c-.151-.9-.5-1-1.044-1.567a2.091,2.091,0,0,1-.678-1.29A15.824,15.824,0,0,1-.567,0Z" fill="#8c8e8c"/></g><g transform="translate(209.186 -118.911)"><path d="M0,0A10.914,10.914,0,0,0,2.841-.275c.364-.1.7-.248,1.064-.361.338-.106.775-.142,1.142-.272a10.39,10.39,0,0,0,.965-.785,2.3,2.3,0,0,0,.925-.6,6.64,6.64,0,0,1,1.6-.254c1.006-.2,1.75-.689,2.769-.909A4.03,4.03,0,0,0,10.794-6.6a8.111,8.111,0,0,0-.816-.489c-.14-.1-.256-.375-.4-.5A21.941,21.941,0,0,1,7.64-9c-.468-.5-.663-1.229-1.111-1.784-.165-.2-.424-.355-.576-.54-.2-.241-.308-.663-.562-.943A25.44,25.44,0,0,0,2.8-14.684a6.959,6.959,0,0,1-1.122-1.2c-.346-.509-.43-1.153-.817-1.644-1.42-1.805-3.883-2.3-5.889-2.961-1.9-.627-4.441-.207-6.454-.206a5.78,5.78,0,0,0-5.254,2.6c-.6.847-1.141,1.667-1.761,2.5a11.566,11.566,0,0,0-1.723,2.575c-.27.687-.031,1.324-.228,2.021-.183.648-.786,1.109-.993,1.778a6.119,6.119,0,0,0-.1,1.988c.014.987-.08,2-.023,2.982.109,1.854,1.122,3.22,1.657,4.91a8.953,8.953,0,0,1,.63,3.188c-.007,1.067,0,2.136,0,3.2,0,.856.081,1.747.007,2.6-.119,1.365-.651,2.723-.8,4.107a82.575,82.575,0,0,0-.057,8.762c0,3.1.283,6.123.283,9.226,0,1.838.1,3.707.014,5.542-.047,1.03-.265,2.055-.375,3.079-.077.722.111,2.7-.2,3.39s-.933.986-1.093,1.862a33.179,33.179,0,0,0-.332,5.98c0,4.064-.557,8.51.639,12.4.517,1.684.556,3.432,1.254,5.073.335.786.872,1.47,1.191,2.262a7.058,7.058,0,0,1,.326,2.976c-.074,2.419-.434,5.848,2.071,7.265,1.492.842,3.807.767,5.494.677,1.367-.074,2.459-.849,3.679-1.362a9.291,9.291,0,0,1,2.725-.61,5.511,5.511,0,0,1,3.116.435,10,10,0,0,0,4.008.355c.984,0,2.937.364,3.843-.036,1.307-.577,1.15-3.046-.047-3.594a10.41,10.41,0,0,1-1.03-.331c-.156-.09-.426-.387-.623-.51-.479-.3-1.129-.271-1.41-.866a6.057,6.057,0,0,1,2.458.008,10.7,10.7,0,0,1,1.219.588.934.934,0,0,0,.575.191c.311.217.366.545.622.754.778.64,2.511.406,3.479.658,1.85.481,3.421,1.538,5.3,1.783,1.416.184,2.908.786,3.429-.914.483-1.576-.082-2.511-1.388-3.47-3.385-2.487-7.884-.852-11.711-1.35-.616-1.693,1.155-3.613,1.62-5.129a13.442,13.442,0,0,0,.059-3.686c-.008-1.009.226-1.907.3-2.9a10.94,10.94,0,0,1,.27-2.584,20.42,20.42,0,0,0,.58-2.545c.077-.515-.33-2.1-.034-2.481.32-.412.672-.149,1.168.049.647.257,1.233,1.169,1.976,1.154.7-.014,1.3-.829,1.426-1.473,0-.315-.01-.629-.029-.944a6.957,6.957,0,0,1,.455-1.742,5.433,5.433,0,0,0,.126-1.488c-.011-1.023.015-2.045.006-3.068a9.694,9.694,0,0,0-.872-3.55c-.364-1.029-.47-2.115-.836-3.153-.351-1-.84-1.918-1.14-2.891-.534-1.728-2.249-2.828-3.132-4.459-.41-.757-.755-1.578-1.113-2.339a1.316,1.316,0,0,0-.5-1.129L7.4,29.306A6.714,6.714,0,0,1,7.387,27.7a2.393,2.393,0,0,0-.3-1.25,22.82,22.82,0,0,1-.33-2.406c-.143-1.235-.638-2.412-.865-3.628a18.151,18.151,0,0,1-.5-2.227,6.542,6.542,0,0,0-.943-2.872c-.476-.96-.656-2.1-1.111-3.069-.513-1.094-1.374-2.075-1.588-3.3Q1.7,8.109,1.659,7.273c-.151-.9-.5-1-1.044-1.567a2.091,2.091,0,0,1-.678-1.29A15.824,15.824,0,0,1-.567,0Z" fill="none" stroke="#8c8e8c" stroke-width="1"/></g><g transform="translate(208.335 -95.383)"><path d="M0,0C0,2.467.25,4.523,2.32,6a26.168,26.168,0,0,0,2.8,1.939c.763.412,1.5.895,2.217,1.376A7.859,7.859,0,0,1,9.721,11.7c.666,1.081,1,2.294,1.6,3.388a11.4,11.4,0,0,1,.763,1.238c.145.418,0,.586.088.956.166.716.216,1.4.363,2.12a16.707,16.707,0,0,1,.214,3.066,16.9,16.9,0,0,0,.8,3.576c.334,1.4.932,2.672,1.251,4a5.286,5.286,0,0,1,.222,1.417c0,.746.2,1.017-.561,1.139-1.037.166-1.476-.914-2.2-1.492-1.461-1.175-1.893-2.8-2.352-4.592-.408-1.591.011-3.215-.64-4.693a14.587,14.587,0,0,0-.689-1.778A5.75,5.75,0,0,0,6.66,18.2c-.734-.454-1.485-.964-2.274-1.351a7.394,7.394,0,0,0-1.06-.475,9.046,9.046,0,0,1-1.363-.952,8.414,8.414,0,0,0-1.169-.6,8.082,8.082,0,0,0-2.189-1.162,4.378,4.378,0,0,0-1.177-.033c-.558-.084-.624-.445-1.088-.62q-.523.031-1.047.047c-.4-.066-.347-.177-.662-.3-.957-.379-1.742-.883-1.718-1.984" fill="none" stroke="#2b2e34" stroke-width="0.5"/></g><g transform="translate(221.233 -65.194)"><path d="M0,0C.753.164.862,1.295.864,1.9.449,1.621.679,1.3.575.9.5.617.218.419.277.1l.006.18" fill="none" stroke="#2b2e34" stroke-width="1"/></g><g transform="translate(223.572 -67.439)"><path d="M0,0C.691.341.523,1.465.379,2.051.043,1.681.343,1.43.339,1.017.336.719.11.459.244.167.231.226.219.285.206.344" fill="none" stroke="#2b2e34" stroke-width="1"/></g><g transform="translate(8.039 -70.666)"><path d="M0,0C1.1,2.127,2.437,4.063,3.3,5.474,6.352,10.49,7.775,16.1,10.308,21.364A88.42,88.42,0,0,0,22.063,39.246c3.062,3.676,5.919,8,9.627,11.107a39.152,39.152,0,0,1,3.4,2.88c.927.972,1.086.769,1.849,1.325a28.354,28.354,0,0,0,3.423,2.526,46.335,46.335,0,0,0,4.463,1.835c.772.3,1.662.818,2.471,1.046.736.208,1.451-.016,2.116.414a4.429,4.429,0,0,0,.032-1.5c.043.883.9,1.159,1.559,1.6a76.314,76.314,0,0,0,7.459,4.942c10.028,5.145,22.282,4.823,33.27,4.684,14.089-.178,28.168-.364,42.264-.364,6.084,0,12.306.454,18.352-.136a89.231,89.231,0,0,1,9.639-.91c1.994.015,3.989,0,5.983,0a94.707,94.707,0,0,0,19.477-1.8q2.613-.567,5.215-1.185c1.433-.253,3.055-.136,4.355-.862a19.725,19.725,0,0,0,3.994-3.125c1.458-1.461,2.5-3.162,4.153-4.465a20.819,20.819,0,0,0,1.824-1.389c1.444-1.394,3.253-2.575,4.631-4,2.068-2.143,3.74-5.077,5.47-7.673,3.373-5.062,4.846-11.015,7.5-16.333a32.6,32.6,0,0,0,2.176-5.354c.744-2.544,2.412-4.742,3.26-7.3a19.369,19.369,0,0,1,2.168-3.938,23.34,23.34,0,0,0,.959-2.62,41.831,41.831,0,0,1,1.721-4.221,7.909,7.909,0,0,0,1.267-2.349,13.574,13.574,0,0,0,.73-2.6A35.086,35.086,0,0,1,238.1-6.448C231.88-6.62,225.321-2.436,219.4-.69c-4.909,1.446-9.822,2.907-14.754,4.336-7.9,2.291-15.915,4.176-23.831,6.431a122.627,122.627,0,0,1-15.473,3.809c-4.477.67-9.061.538-13.5,1.178-3.913.564-7.833,1.241-11.765,1.7a40.639,40.639,0,0,1-4.994.243c-1.046-.007-2.645-.313-3.639.058a.728.728,0,0,0,.015.516c-.367-.9-1.7-1.2-2.523-1.6-2.34-1.134-4.209-2.914-6.9-3.186-3.212-.325-6.723.04-9.951.04-5.079,0-10.159-.008-15.238.016-6.2.029-12.332-.677-18.54-.7-6-.025-11.611-1.36-17.508-1.936-5.189-.506-9.988-1.849-15.067-2.975-3.061-.679-6.935.274-8.226-3.112a9.359,9.359,0,0,1,.056,1.39,10.069,10.069,0,0,1-3.057.049,19.17,19.17,0,0,1-4.374-1.759A31.022,31.022,0,0,0,26.066,2.36c-4.844-1.743-8.9-4.69-14.083-5.513C9.175-3.6,5.751-4.4,2.9-3.687c-1.42.354-2.587.174-3.929.712Z" fill="#ffc5c8"/></g><g transform="translate(8.039 -70.666)"><path d="M0,0C1.1,2.127,2.437,4.063,3.3,5.474,6.352,10.49,7.775,16.1,10.308,21.364A88.42,88.42,0,0,0,22.063,39.246c3.062,3.676,5.919,8,9.627,11.107a39.152,39.152,0,0,1,3.4,2.88c.927.972,1.086.769,1.849,1.325a28.354,28.354,0,0,0,3.423,2.526,46.335,46.335,0,0,0,4.463,1.835c.772.3,1.662.818,2.471,1.046.736.208,1.451-.016,2.116.414a4.429,4.429,0,0,0,.032-1.5c.043.883.9,1.159,1.559,1.6a76.314,76.314,0,0,0,7.459,4.942c10.028,5.145,22.282,4.823,33.27,4.684,14.089-.178,28.168-.364,42.264-.364,6.084,0,12.306.454,18.352-.136a89.231,89.231,0,0,1,9.639-.91c1.994.015,3.989,0,5.983,0a94.707,94.707,0,0,0,19.477-1.8q2.613-.567,5.215-1.185c1.433-.253,3.055-.136,4.355-.862a19.725,19.725,0,0,0,3.994-3.125c1.458-1.461,2.5-3.162,4.153-4.465a20.819,20.819,0,0,0,1.824-1.389c1.444-1.394,3.253-2.575,4.631-4,2.068-2.143,3.74-5.077,5.47-7.673,3.373-5.062,4.846-11.015,7.5-16.333a32.6,32.6,0,0,0,2.176-5.354c.744-2.544,2.412-4.742,3.26-7.3a19.369,19.369,0,0,1,2.168-3.938,23.34,23.34,0,0,0,.959-2.62,41.831,41.831,0,0,1,1.721-4.221,7.909,7.909,0,0,0,1.267-2.349,13.574,13.574,0,0,0,.73-2.6A35.086,35.086,0,0,1,238.1-6.448C231.88-6.62,225.321-2.436,219.4-.69c-4.909,1.446-9.822,2.907-14.754,4.336-7.9,2.291-15.915,4.176-23.831,6.431a122.627,122.627,0,0,1-15.473,3.809c-4.477.67-9.061.538-13.5,1.178-3.913.564-7.833,1.241-11.765,1.7a40.639,40.639,0,0,1-4.994.243c-1.046-.007-2.645-.313-3.639.058a.728.728,0,0,0,.015.516c-.367-.9-1.7-1.2-2.523-1.6-2.34-1.134-4.209-2.914-6.9-3.186-3.212-.325-6.723.04-9.951.04-5.079,0-10.159-.008-15.238.016-6.2.029-12.332-.677-18.54-.7-6-.025-11.611-1.36-17.508-1.936-5.189-.506-9.988-1.849-15.067-2.975-3.061-.679-6.935.274-8.226-3.112a9.359,9.359,0,0,1,.056,1.39,10.069,10.069,0,0,1-3.057.049,19.17,19.17,0,0,1-4.374-1.759A31.022,31.022,0,0,0,26.066,2.36c-4.844-1.743-8.9-4.69-14.083-5.513C9.175-3.6,5.751-4.4,2.9-3.687c-1.42.354-2.587.174-3.929.712Z" fill="none" stroke="#ffc5c8" stroke-width="1"/></g><g transform="translate(243.733 -91.566)"><path d="M0,0C.293,2.3-.429,3.268-2.173,4.359-9.087,8.685-15.62,12.274-23.5,14.536c-4.334,1.244-8.79,2.263-13.227,3.08a66.636,66.636,0,0,0-14.3,4.594,96.3,96.3,0,0,1-15.317,5.153c-5.672,1.309-11.476,1.524-17.169,2.7-4.318.9-8.973,2.62-13.375,2.949-2.842.212-5.74-.268-8.589-.1-6.069.364-12.054-.112-18.169-.112-12.065,0-24.609.9-36.456-.669-2.952-.391-5.406-.511-8.134-1.669-4.034-1.712-8.467-2.766-12.377-4.739-2.851-1.438-4.114-2.328-7.369-2.7-3.3-.374-6.306-1.175-9.5-1.834-5.644-1.166-10.992-2.486-16.772-2.425-3.858.041-7.019-.981-10.711-1.852-2.877-.678-12.036-4.94-12.616-6.665a22.523,22.523,0,0,0-1.146-2.525c-.431-.917.252-3.586-.128-4.263-.356-.633-.822-1.767-3.888.651-1.5,2.609-.933,3.626-.687,5.725.368,3.14,2.71,4.051,4.735,5.827.058.051,1.064,1.441,1.117,1.514a7.671,7.671,0,0,0,1.67,1.745c1.441.97,3.122,1.62,4.462,2.369,2.546,1.423,19.828,10.252,21.579,10.972,2.234.918,4.138,1.109,6.233,2.237,4.059,2.186,8.409,2.974,12.741,4.36,4.018,1.286,7.948,3.575,12.226,4.189,3.1.444,6.038.584,9.14,1.247a62.266,62.266,0,0,0,8.529,1.115c13.9,1,27.911.569,41.851.569,3.746,0,7.5.089,11.242.052,4.959-.05,9.389-1.5,14.14-2.789,4.909-1.333,9.48-1.442,14.417-1.911,4.842-.461,9.559-1.53,14.387-2.062a19.588,19.588,0,0,1,3.648-.046c.679.012,10.912-3.894,14.067-4.119,5.492-.394,10.776-2.585,15.948-4.321,7.727-2.594,14.74-5.515,22.15-8.65,4.01-1.7,7.986-3.541,10.878-6.817,2.121-2.4,4.575-4.061,4.945-7.371C7.026,4.87,6.35-.444,1.672,0Z" fill="#ffb1b8"/></g><g transform="translate(193.312 -132.942)"><path d="M0,0C-.485.118-.695,1.019-.846,1.414a1.933,1.933,0,0,0-.146.7c-.018.46-.113.874-.145,1.322A10.919,10.919,0,0,0-.97,6.789,6.162,6.162,0,0,0,.163,8.632c.254.4.38.721.951.842a1.491,1.491,0,0,0,1.1-.127,1.537,1.537,0,0,0,.373-.59c.225-.371.555-.671.77-1.045a4.414,4.414,0,0,0,.34-2.006,2.872,2.872,0,0,0-.546-1.929,4.9,4.9,0,0,1-.6-1.319A2.975,2.975,0,0,0,1.587.731C1.313.5.36.229.283-.142Z" fill="#2b2e34"/></g><g transform="translate(193.312 -132.942)"><path d="M0,0C-.485.118-.695,1.019-.846,1.414a1.933,1.933,0,0,0-.146.7c-.018.46-.113.874-.145,1.322A10.919,10.919,0,0,0-.97,6.789,6.162,6.162,0,0,0,.163,8.632c.254.4.38.721.951.842a1.491,1.491,0,0,0,1.1-.127,1.537,1.537,0,0,0,.373-.59c.225-.371.555-.671.77-1.045a4.414,4.414,0,0,0,.34-2.006,2.872,2.872,0,0,0-.546-1.929,4.9,4.9,0,0,1-.6-1.319A2.975,2.975,0,0,0,1.587.731C1.313.5.36.229.283-.142Z" fill="none" stroke="#2b2e34" stroke-width="1"/></g><g transform="translate(220.857 -125.527)"><path d="M0,0A8.352,8.352,0,0,0-.663-.643a3.824,3.824,0,0,0-.7-.432c-.322-.216-.5-.491-.93-.367-.286.084-.151-.015-.238.32-.072.272-.161.633-.218.926A6.2,6.2,0,0,0-2.89,1.119c0,.4-.093,1.008.232,1.252.26.194.9.027,1.213.027.429,0,.66.047.963-.36.2-.265.481-.958.825-.946C.418.69.407.177.023.129L0,0" fill="#2b2e34"/></g><g transform="translate(220.857 -125.527)"><path d="M0,0A8.352,8.352,0,0,0-.663-.643a3.824,3.824,0,0,0-.7-.432c-.322-.216-.5-.491-.93-.367-.286.084-.151-.015-.238.32-.072.272-.161.633-.218.926A6.2,6.2,0,0,0-2.89,1.119c0,.4-.093,1.008.232,1.252.26.194.9.027,1.213.027.429,0,.66.047.963-.36.2-.265.481-.958.825-.946C.418.69.407.177.023.129L0,0" fill="none" stroke="#2b2e34" stroke-width="1"/></g><g transform="translate(213.296 -128.407)"><path d="M0,0C.027-.632-.511-1.115-.85-1.586A11.807,11.807,0,0,0-2.1-3.3,6.126,6.126,0,0,0-3.724-4.4c-.283-.132-.508-.053-.779-.156s-.377-.312-.67-.407A3.157,3.157,0,0,0-7.678-4.8a.891.891,0,0,1-.479.42,1,1,0,0,0-.318.157A7.623,7.623,0,0,0-9-3.65,1.636,1.636,0,0,0-9.5-2.112C-9.442-1.019-8.24-1.406-7.541-1c.351.206.482.582.734.854A4.057,4.057,0,0,0-5.779.822a8.255,8.255,0,0,0,4.267.461A2.1,2.1,0,0,0-.85,1.068,1.045,1.045,0,0,1-.273.862C-.053.7,0,0,0,0" fill="#2b2e34"/></g><g transform="translate(213.296 -128.407)"><path d="M0,0C.027-.632-.511-1.115-.85-1.586A11.807,11.807,0,0,0-2.1-3.3,6.126,6.126,0,0,0-3.724-4.4c-.283-.132-.508-.053-.779-.156s-.377-.312-.67-.407A3.157,3.157,0,0,0-7.678-4.8a.891.891,0,0,1-.479.42,1,1,0,0,0-.318.157A7.623,7.623,0,0,0-9-3.65,1.636,1.636,0,0,0-9.5-2.112C-9.442-1.019-8.24-1.406-7.541-1c.351.206.482.582.734.854A4.057,4.057,0,0,0-5.779.822a8.255,8.255,0,0,0,4.267.461A2.1,2.1,0,0,0-.85,1.068,1.045,1.045,0,0,1-.273.862C-.053.7,0,0,0,0Z" fill="none" stroke="#2b2e34" stroke-width="1"/></g><g transform="translate(209.895 -122.313)"><path d="M0,0A10.866,10.866,0,0,1,3.4.886a8.6,8.6,0,0,0,1.273.393,11.853,11.853,0,0,0,1.846,0" fill="none" stroke="#2b2e34" stroke-width="0.5"/></g><g transform="translate(207.485 -132.233)"><path d="M0,0C-.3,0-1.466-.182-1.663.043-2.168.614-.9,1.153-.63,1.4c.243.225.326.568.622.809a6.157,6.157,0,0,0,.794.418,8.146,8.146,0,0,0,1.184.785C3.2,3.794,3.486,1.9,3.138,1.12,2.817.4,2.231.8,1.687.582,1.094.341,1.067-.121.283,0Z" fill="#6d7170"/></g><g transform="translate(207.485 -132.233)"><path d="M0,0C-.3,0-1.466-.182-1.663.043-2.168.614-.9,1.153-.63,1.4c.243.225.326.568.622.809a6.157,6.157,0,0,0,.794.418,8.146,8.146,0,0,0,1.184.785C3.2,3.794,3.486,1.9,3.138,1.12,2.817.4,2.231.8,1.687.582,1.094.341,1.067-.121.283,0Z" fill="none" stroke="#6d7170" stroke-width="1"/></g><g transform="translate(209.063 -129.327)"><path d="M0,0C.459,0,.831-.534.831-1.193S.459-2.386,0-2.386s-.831.534-.831,1.193S-.459,0,0,0" fill="#2b2e34"/></g></g></g></svg>