<svg xmlns="http://www.w3.org/2000/svg" xmlns:xlink="http://www.w3.org/1999/xlink" width="151.748" height="65.706" viewBox="0 0 151.748 65.706"><defs><clipPath id="a"><path d="M0,28.435H151.748V-37.271H0Z" transform="translate(0 37.271)" fill="none"/></clipPath></defs><g transform="translate(0 37.271)"><g transform="translate(0 -37.271)" clip-path="url(#a)"><g transform="translate(112.758 35.121)"><path d="M5.361,2.639H9.12c.1,0,.249-.115.441-.346a2.543,2.543,0,0,1,.594-.536V-.275a9.849,9.849,0,0,0-.076-1.056Q10-2,9.925-2.461a.528.528,0,0,0-.249-.289A3.921,3.921,0,0,0,9.215-3c-.166-.078-.312-.141-.441-.192s-.192-.088-.192-.115l-.767-.153a1.87,1.87,0,0,1-.517.076H6.78a3.749,3.749,0,0,1-.518.058c-.217.012-.441.032-.67.058l-.844.076c-.2.333-.416.665-.633,1a1.718,1.718,0,0,0-.326.92q0,.077.058.672A11.072,11.072,0,0,0,4.056.7,5.974,5.974,0,0,0,4.48,1.987c.178.384.407.575.689.575Zm-11.008,0a5.438,5.438,0,0,0,.594.153,2.17,2.17,0,0,0,.518.019c.2-.012.492-.032.864-.058S-2.745,2.716-2,2.716a.912.912,0,0,0,.728-.309A2.261,2.261,0,0,0-.852,1.68,4.045,4.045,0,0,0-.642.8,6.312,6.312,0,0,0-.584.032V-1.811a9.867,9.867,0,0,1-.94-.786,1.07,1.07,0,0,0-.786-.287.541.541,0,0,0-.307.078c-.078.051-.18.025-.307-.078l-2.456.039a9.115,9.115,0,0,0-.709.575c-.167.153-.321.3-.46.441s-.212.226-.212.25V-.467a1.844,1.844,0,0,1-.134.48,1.771,1.771,0,0,0-.134.517,1.174,1.174,0,0,0,.115.557,3.8,3.8,0,0,0,.287.441c.116.153.236.314.365.48a1.961,1.961,0,0,1,.307.633Zm-1.38,19.1a16.553,16.553,0,0,1,1.054,1.5,3.35,3.35,0,0,0,1.132,1.149c.025-.051.1-.056.212-.018s.185.032.21-.019a.754.754,0,0,1,.46-.116,2.79,2.79,0,0,0,.691,0h.5L.758,24a1.762,1.762,0,0,1,.518-.078c.319-.025.723-.051,1.208-.076s1-.051,1.553-.078,1.068-.044,1.555-.056.894-.026,1.227-.039.524-.019.575-.019a10.391,10.391,0,0,0,1.112-.978,8.056,8.056,0,0,0,.806-1,3.047,3.047,0,0,0,.5-1.171l.115-13.73c-.153-.256-.353-.6-.594-1.017A2.2,2.2,0,0,0,8.545,4.9a3.442,3.442,0,0,0-.806-.078c-.333,0-.652.007-.959.019s-.665.044-1.074.1c-.078,0-.192.09-.346.27s-.314.377-.48.594-.314.428-.441.633a1.18,1.18,0,0,0-.192.383L3.521,17.366c-.1.2-.16.294-.173.268s-.1-.012-.25.039a.159.159,0,0,0-.1.058.232.232,0,0,1-.173.056c-.46,0-.806-.005-1.035-.018s-.428-.026-.594-.039l-.538-.039c-.192-.012-.48-.019-.864-.019l-1.227-.346q.077-1.494.116-2.607t.1-2.4q.058-1.283.1-2.378t.039-1.782c0-.46-.026-.677-.076-.652a1.352,1.352,0,0,0-.116-.633,2.121,2.121,0,0,0-.307-.421c-.127-.141-.287-.3-.48-.48a4.429,4.429,0,0,1-.633-.806H-4.8c-.153.153-.333.319-.538.5s-.4.346-.575.5-.326.287-.441.4-.173.185-.173.212c0,.051-.026.28-.078.689s-.1.9-.134,1.477-.076,1.183-.115,1.821a10.124,10.124,0,0,0,.019,1.687q-.04.423-.058,1.611t-.058,2.456q-.037,1.264-.056,2.32c-.014.7-.019,1.105-.019,1.208Zm22.5,1.246c.1-.012.242-.025.421-.037s.421-.026.728-.039.755-.019,1.343-.019,1.361.007,2.32.019,2.167.044,3.625.1q.651-.19,1.035-.326c.256-.088.506-.166.749-.229a2.872,2.872,0,0,1,.441-.1,2.978,2.978,0,0,0,.978-.555,18.761,18.761,0,0,0,1.648-1.324,12.977,12.977,0,0,0,1.534-1.61,2.5,2.5,0,0,0,.672-1.419V15.372a6.585,6.585,0,0,0-.555-2.551,7.245,7.245,0,0,0-1.726-2.435,9.194,9.194,0,0,0-2.935-1.823,11.183,11.183,0,0,0-4.18-.709,3.041,3.041,0,0,1-1.054-.192,1.859,1.859,0,0,0-.9-.115q.04-1.88.078-2.609c.025-.485.039-.7.039-.651.178-.1.307-.18.383-.231a.839.839,0,0,1,.307-.115,2.8,2.8,0,0,1,.613-.019c.282.012.716.019,1.3.019h1.035c.538,0,1.125.005,1.765.019L26.958,4c.575.014.989.019,1.246.019a5.118,5.118,0,0,0,.786-.039.716.716,0,0,0,.383-.21,3.9,3.9,0,0,0,.421-.538,8.221,8.221,0,0,1,.9-1.015V-.429c-.1-.129-.231-.294-.384-.5a6.848,6.848,0,0,0-.5-.594,3.921,3.921,0,0,0-.555-.5.911.911,0,0,0-.518-.212q-2.607.23-4.333.268t-2.8.039H19.977a1.928,1.928,0,0,0-.786.115,3.03,3.03,0,0,0-1.227.691A22.336,22.336,0,0,0,16.046.511a20.575,20.575,0,0,0-1.784,1.9,2.792,2.792,0,0,0-.786,1.535q0,.613-.037,1.169T13.4,6.283a6.2,6.2,0,0,0,1.495,4.065,10.019,10.019,0,0,0,3.8,2.8l6.4.078a1.682,1.682,0,0,1,.1.651c.012.36.019.613.019.769,0,.178.005.421.019.728a5.253,5.253,0,0,1-.039.9,1.846,1.846,0,0,1-.268.767.739.739,0,0,1-.672.326l-9.206-.307c-.434.358-.767.621-1,.786a2.653,2.653,0,0,0-.5.441.812.812,0,0,0-.173.46c-.012.18-.019.46-.019.844s.012.709.039.978a2.369,2.369,0,0,0,.192.747,2.787,2.787,0,0,0,.5.728,11.132,11.132,0,0,0,.957.92,1.593,1.593,0,0,0,.423.019" transform="translate(7.027 3.459)" fill="#fff"/></g><g transform="translate(57.609 0)"><path d="M.33,26.881A4.058,4.058,0,0,0,1.569,28.5a5.794,5.794,0,0,0,1.38.809,4.507,4.507,0,0,0,1,.286c.252.033.286.048.1.048H7.189a27.76,27.76,0,0,0,2.858-.1,10.8,10.8,0,0,1,1.239-.1,2.7,2.7,0,0,0,2.191-.9,6.091,6.091,0,0,0,1.142-2.1,10.616,10.616,0,0,0,.478-2.286c.062-.73.1-1.253.1-1.573L14.525-1.7l-.952-6.955a3.243,3.243,0,0,1,.19-1.333l1.62.286A6.41,6.41,0,0,0,16-8.035,36.026,36.026,0,0,0,17.86-4.368,35.476,35.476,0,0,0,20.289-.652a3.826,3.826,0,0,0,2.429,1.811,14.567,14.567,0,0,0,2.144.809,4.577,4.577,0,0,0,.857.143.371.371,0,0,0,.333-.143c.063-.1.19-.109.381-.048H27.2a14.2,14.2,0,0,0,2.858-3.191,33.106,33.106,0,0,0,2-3.526q.857-1.761,1.668-3.429a16.331,16.331,0,0,1,1.953-3.1c.19.319.252.541.19.666a1.619,1.619,0,0,0-.1.668l.286,33.153a3.715,3.715,0,0,0,.476,1.335,11.329,11.329,0,0,0,.857,1.287,6.265,6.265,0,0,0,1,1.047,2.458,2.458,0,0,0,.9.524,14.086,14.086,0,0,1,3.478.048,6.513,6.513,0,0,0,3.191-.333l1.049-.19q.762-.857,1.618-2a2.85,2.85,0,0,0,.763-1.906V-30.472c.062-.127-.048-.444-.335-.954a18.256,18.256,0,0,0-1-1.571,14.451,14.451,0,0,0-1.19-1.477q-.621-.666-.906-.666H42.631q-.574,0-1.1-.048c-.349-.032-.747-.048-1.19-.048A1.336,1.336,0,0,0,39.3-34.9a3.662,3.662,0,0,1-.952.714,3.957,3.957,0,0,1-2,1.1,3.175,3.175,0,0,0-1.906,1.38q-1.05,2.287-2.334,5t-2.524,5.146q-1.24,2.428-2.144,4.19c-.6,1.178-.97,1.858-1.1,2.049a25.283,25.283,0,0,0-2.953-4.716,65.251,65.251,0,0,0-4.43-5.192Q16.525-27.805,14-30.186t-4.525-4.1q-1.811-.093-3.429-.286a4.173,4.173,0,0,0-2.479.286,6.056,6.056,0,0,0-1.428.524,3.837,3.837,0,0,0-.668.524q-.381.383-1.142,1.144c-.509.509-.762.89-.762,1.144v1.19c0,.476.014.97.048,1.477s.062,1,.1,1.476a6.255,6.255,0,0,0,.143,1.1Z" transform="translate(0.432 35.235)" fill="#fff"/></g><g transform="translate(111.922 3.985)"><path d="M0,10.506a1.15,1.15,0,0,0,.4.92,2.453,2.453,0,0,0,.978.5,6.141,6.141,0,0,0,1.19.192q.611.037,1.035.037a2.193,2.193,0,0,1,.5.1,2.193,2.193,0,0,0,.46.1c.127,0,.2-.019.212-.056s.056-.058.134-.058c.127,0,.268-.109.421-.326a4.461,4.461,0,0,0,.421-.747c.129-.282.243-.562.346-.844s.178-.485.231-.613l.46-20.864a3.233,3.233,0,0,0-.326-.691,5.274,5.274,0,0,0-.613-.823,4.432,4.432,0,0,0-.825-.71,2.36,2.36,0,0,0-.92-.383.308.308,0,0,1-.078.056A.7.7,0,0,1,3.8-13.7c-.129,0-.314-.005-.557-.019l-1.054-.056a6.419,6.419,0,0,0-1,.843,1.763,1.763,0,0,0-.4.691,2.223,2.223,0,0,0-.078.709c.014.243.019.532.019.864L.421-4.835a2.968,2.968,0,0,1,.039.652v1.342q0,.807-.019,1.8T.421,1a2.206,2.206,0,0,0,.116.536A3.15,3.15,0,0,1,.613,2.568Q.537,3.295.421,4.1C.346,4.637.28,5.355.231,6.249Zm11.8.594c.051-.012.16-.032.326-.056a6.917,6.917,0,0,1,.767-.058c.346-.012.85-.019,1.516-.019h.268q.42-.344.881-.672a1.824,1.824,0,0,0,.652-.786L16.6-1.115v-.959c0-.025.005-.039.018-.039s.019-.018.019-.056v-.384c0,.014.012-.005.039-.056Q17.055-1.959,18-.521t2.242,3.242q1.3,1.8,2.877,3.778t3.223,3.7l1.264.039a.745.745,0,0,0,.365-.192c.166-.127.346-.275.538-.441a6.793,6.793,0,0,0,.536-.518,1.369,1.369,0,0,0,.287-.384l-.5-19.752c-.053-.127-.122-.293-.212-.5a5.43,5.43,0,0,0-.307-.6,3.2,3.2,0,0,0-.384-.517A2.925,2.925,0,0,0,27.565-13c-.307-.025-.659-.039-1.056-.039h-1.13c-.36,0-.781.014-1.266.039a.87.87,0,0,0-.576.229,2.817,2.817,0,0,0-.48.538,3.7,3.7,0,0,0-.344.613,1.3,1.3,0,0,0-.136.46l.346,8.783Q21.85-4.145,21.1-5.2T19.875-6.83c-.321-.383-.55-.665-.691-.843a.8.8,0,0,1-.212-.46,1.191,1.191,0,0,0-.153-.365c-.1-.192-.224-.409-.363-.652s-.287-.5-.441-.786-.294-.524-.423-.728A3.987,3.987,0,0,0,17.3-11.2a5.831,5.831,0,0,0-.5-.689,4.879,4.879,0,0,0-.633-.633,1.644,1.644,0,0,0-.689-.365,5.075,5.075,0,0,1-.9,0c-.37-.025-.74-.058-1.111-.1s-.718-.078-1.037-.116-.543-.056-.672-.056a1.417,1.417,0,0,0-1.074.5,1.556,1.556,0,0,0-.46,1.074l.153,20.9a3.923,3.923,0,0,0,.192.421c.1.2.217.409.346.613a3.588,3.588,0,0,0,.4.538c.141.153.25.229.326.229A.572.572,0,0,0,11.8,11.1m21.236-.594a1.15,1.15,0,0,0,.4.92,2.453,2.453,0,0,0,.978.5,6.141,6.141,0,0,0,1.19.192q.611.037,1.035.037a2.193,2.193,0,0,1,.5.1,2.193,2.193,0,0,0,.46.1c.127,0,.2-.019.212-.056s.056-.058.134-.058c.127,0,.268-.109.421-.326a4.461,4.461,0,0,0,.421-.747c.129-.282.243-.562.346-.844s.178-.485.231-.613l.46-20.864a3.322,3.322,0,0,0-.326-.691,5.274,5.274,0,0,0-.613-.823,4.432,4.432,0,0,0-.825-.71,2.36,2.36,0,0,0-.92-.383.308.308,0,0,1-.078.056.7.7,0,0,1-.229.019c-.129,0-.314-.005-.557-.019l-1.054-.056a6.419,6.419,0,0,0-1,.843,1.763,1.763,0,0,0-.4.691,2.223,2.223,0,0,0-.078.709c.014.243.019.532.019.864l-.307,5.83a2.969,2.969,0,0,1,.039.652v1.342q0,.807-.019,1.8T33.458,1a2.206,2.206,0,0,0,.116.536,3.15,3.15,0,0,1,.076,1.037q-.077.727-.192,1.534c-.076.536-.141,1.253-.19,2.147Z" transform="translate(0 13.771)" fill="#fff"/></g><g transform="translate(0.281 1.475)"><path d="M5.9,5.552a6.856,6.856,0,0,0,1.765-.169c.227-.06.437-.153.663-.222.208-.065.481-.088.709-.167a6.891,6.891,0,0,0,.6-.483,1.442,1.442,0,0,0,.575-.367,4.169,4.169,0,0,1,1-.157c.626-.125,1.088-.425,1.721-.561a2.462,2.462,0,0,0-.321-1.937,5.184,5.184,0,0,0-.506-.3c-.088-.063-.16-.231-.252-.31a13.629,13.629,0,0,1-1.2-.867c-.291-.309-.413-.758-.691-1.1-.1-.125-.263-.217-.358-.331-.123-.148-.19-.409-.349-.58A15.694,15.694,0,0,0,7.646-3.49a4.4,4.4,0,0,1-.7-.739c-.213-.314-.266-.71-.506-1.012-.883-1.112-2.413-1.416-3.66-1.825a13.9,13.9,0,0,0-4.011-.127,3.605,3.605,0,0,0-3.265,1.6c-.376.522-.709,1.028-1.093,1.541A7.153,7.153,0,0,0-6.658-2.464c-.167.423-.018.814-.141,1.245-.115.4-.488.682-.617,1.095A3.706,3.706,0,0,0-7.48,1.1c.009.608-.049,1.231-.014,1.837a11.986,11.986,0,0,0,1.03,3.023,5.491,5.491,0,0,1,.391,1.964c-.005.658,0,1.315,0,1.973,0,.527.051,1.075.005,1.6-.074.839-.405,1.675-.5,2.528a50.529,50.529,0,0,0-.035,5.4c0,1.911.176,3.771.176,5.682,0,1.132.062,2.283.009,3.413-.028.635-.164,1.266-.233,1.9A10.039,10.039,0,0,1-6.773,32.5c-.2.428-.578.606-.679,1.146a20.231,20.231,0,0,0-.206,3.683c0,2.5-.346,5.241.4,7.637a29.842,29.842,0,0,0,.779,3.124c.208.485.543.906.74,1.393a4.34,4.34,0,0,1,.2,1.833c-.046,1.49-.27,3.6,1.287,4.474a6.84,6.84,0,0,0,3.413.416,6.953,6.953,0,0,0,2.286-.837,5.746,5.746,0,0,1,1.692-.375,3.441,3.441,0,0,1,1.937.268,6.271,6.271,0,0,0,2.489.219,7.738,7.738,0,0,0,2.389-.023,1.343,1.343,0,0,0-.03-2.214,6.608,6.608,0,0,1-.64-.2c-.1-.056-.264-.238-.388-.314-.3-.185-.7-.167-.876-.534A3.814,3.814,0,0,1,9.55,52.2a6.648,6.648,0,0,1,.758.361.577.577,0,0,0,.356.118c.194.134.227.337.386.465.485.393,1.56.249,2.161.4a27.875,27.875,0,0,0,3.295,1.1c.88.115,1.807.485,2.13-.562a1.725,1.725,0,0,0-.862-2.137c-2.1-1.532-4.9-.525-7.276-.832-.383-1.042.718-2.225,1.007-3.159a8.205,8.205,0,0,0,.035-2.269c0-.622.141-1.174.185-1.784a6.77,6.77,0,0,1,.167-1.592,12.464,12.464,0,0,0,.361-1.567c.048-.317-.2-1.294-.021-1.527.2-.256.418-.093.726.028.4.159.765.721,1.227.712.435-.009.809-.511.885-.908,0-.194-.005-.388-.018-.582a4.249,4.249,0,0,1,.284-1.072,3.315,3.315,0,0,0,.078-.917c-.007-.629.009-1.259,0-1.89a5.938,5.938,0,0,0-.541-2.186c-.226-.633-.293-1.3-.52-1.941-.219-.615-.522-1.181-.709-1.781-.331-1.065-1.4-1.742-1.944-2.747-.256-.465-.471-.971-.693-1.44A.8.8,0,0,0,10.7,23.8l-.2-.2a4.125,4.125,0,0,1-.009-.989,1.47,1.47,0,0,0-.189-.77,14.278,14.278,0,0,1-.2-1.483c-.088-.76-.4-1.484-.538-2.234a11.47,11.47,0,0,1-.31-1.372,3.984,3.984,0,0,0-.585-1.768c-.3-.592-.407-1.294-.691-1.892a8.417,8.417,0,0,1-.985-2.031q-.032-.516-.056-1.03c-.093-.557-.312-.619-.649-.966a1.276,1.276,0,0,1-.421-.793,9.622,9.622,0,0,1-.314-2.72Z" transform="translate(7.739 7.277)" fill="#fff"/></g><g transform="translate(0.281 1.475)"><path d="M5.9,5.552a6.856,6.856,0,0,0,1.765-.169c.227-.06.437-.153.663-.222.208-.065.481-.088.709-.167a6.891,6.891,0,0,0,.6-.483,1.442,1.442,0,0,0,.575-.367,4.169,4.169,0,0,1,1-.157c.626-.125,1.088-.425,1.721-.561a2.462,2.462,0,0,0-.321-1.937,5.184,5.184,0,0,0-.506-.3c-.088-.063-.16-.231-.252-.31a13.629,13.629,0,0,1-1.2-.867c-.291-.309-.413-.758-.691-1.1-.1-.125-.263-.217-.358-.331-.123-.148-.19-.409-.349-.58A15.694,15.694,0,0,0,7.646-3.49a4.4,4.4,0,0,1-.7-.739c-.213-.314-.266-.71-.506-1.012-.883-1.112-2.413-1.416-3.66-1.825a13.9,13.9,0,0,0-4.011-.127,3.605,3.605,0,0,0-3.265,1.6c-.376.522-.709,1.028-1.093,1.541A7.153,7.153,0,0,0-6.658-2.464c-.167.423-.018.814-.141,1.245-.115.4-.488.682-.617,1.095A3.706,3.706,0,0,0-7.48,1.1c.009.608-.049,1.231-.014,1.837a11.986,11.986,0,0,0,1.03,3.023,5.491,5.491,0,0,1,.391,1.964c-.005.658,0,1.315,0,1.973,0,.527.051,1.075.005,1.6-.074.839-.405,1.675-.5,2.528a50.529,50.529,0,0,0-.035,5.4c0,1.911.176,3.771.176,5.682,0,1.132.062,2.283.009,3.413-.028.635-.164,1.266-.233,1.9A10.039,10.039,0,0,1-6.773,32.5c-.2.428-.578.606-.679,1.146a20.231,20.231,0,0,0-.206,3.683c0,2.5-.346,5.241.4,7.637a29.842,29.842,0,0,0,.779,3.124c.208.485.543.906.74,1.393a4.34,4.34,0,0,1,.2,1.833c-.046,1.49-.27,3.6,1.287,4.474a6.84,6.84,0,0,0,3.413.416,6.953,6.953,0,0,0,2.286-.837,5.746,5.746,0,0,1,1.692-.375,3.441,3.441,0,0,1,1.937.268,6.271,6.271,0,0,0,2.489.219,7.738,7.738,0,0,0,2.389-.023,1.343,1.343,0,0,0-.03-2.214,6.608,6.608,0,0,1-.64-.2c-.1-.056-.264-.238-.388-.314-.3-.185-.7-.167-.876-.534A3.814,3.814,0,0,1,9.55,52.2a6.648,6.648,0,0,1,.758.361.577.577,0,0,0,.356.118c.194.134.227.337.386.465.485.393,1.56.249,2.161.4a27.875,27.875,0,0,0,3.295,1.1c.88.115,1.807.485,2.13-.562a1.725,1.725,0,0,0-.862-2.137c-2.1-1.532-4.9-.525-7.276-.832-.383-1.042.718-2.225,1.007-3.159a8.205,8.205,0,0,0,.035-2.269c0-.622.141-1.174.185-1.784a6.77,6.77,0,0,1,.167-1.592,12.464,12.464,0,0,0,.361-1.567c.048-.317-.2-1.294-.021-1.527.2-.256.418-.093.726.028.4.159.765.721,1.227.712.435-.009.809-.511.885-.908,0-.194-.005-.388-.018-.582a4.249,4.249,0,0,1,.284-1.072,3.315,3.315,0,0,0,.078-.917c-.007-.629.009-1.259,0-1.89a5.938,5.938,0,0,0-.541-2.186c-.226-.633-.293-1.3-.52-1.941-.219-.615-.522-1.181-.709-1.781-.331-1.065-1.4-1.742-1.944-2.747-.256-.465-.471-.971-.693-1.44A.8.8,0,0,0,10.7,23.8l-.2-.2a4.125,4.125,0,0,1-.009-.989,1.47,1.47,0,0,0-.189-.77,14.278,14.278,0,0,1-.2-1.483c-.088-.76-.4-1.484-.538-2.234a11.47,11.47,0,0,1-.31-1.372,3.984,3.984,0,0,0-.585-1.768c-.3-.592-.407-1.294-.691-1.892a8.417,8.417,0,0,1-.985-2.031q-.032-.516-.056-1.03c-.093-.557-.312-.619-.649-.966a1.276,1.276,0,0,1-.421-.793,9.622,9.622,0,0,1-.314-2.72Z" transform="translate(7.739 7.277)" fill="none" stroke="#2b2e34" stroke-width="0.319"/></g><g transform="translate(3.276 5.452)"><path d="M.357.04C.02.12-.126.717-.23.978a1.283,1.283,0,0,0-.1.464c-.011.3-.078.58-.1.878A6.965,6.965,0,0,0-.317,4.545,4.064,4.064,0,0,0,.47,5.768c.176.264.264.478.661.559a1.069,1.069,0,0,0,.758-.085,1,1,0,0,0,.259-.391c.157-.247.386-.446.536-.693a2.822,2.822,0,0,0,.234-1.331,1.838,1.838,0,0,0-.379-1.28,3.248,3.248,0,0,1-.414-.876A1.95,1.95,0,0,0,1.459.525C1.268.374.607.192.554-.053Z" transform="translate(0.468 0.053)" fill="#2b2e34"/></g><g transform="translate(3.276 5.452)"><path d="M.357.04C.02.12-.126.717-.23.978a1.283,1.283,0,0,0-.1.464c-.011.3-.078.58-.1.878A6.965,6.965,0,0,0-.317,4.545,4.064,4.064,0,0,0,.47,5.768c.176.264.264.478.661.559a1.069,1.069,0,0,0,.758-.085,1,1,0,0,0,.259-.391c.157-.247.386-.446.536-.693a2.822,2.822,0,0,0,.234-1.331,1.838,1.838,0,0,0-.379-1.28,3.248,3.248,0,0,1-.414-.876A1.95,1.95,0,0,0,1.459.525C1.268.374.607.192.554-.053Z" transform="translate(0.468 0.053)" fill="none" stroke="#2b2e34" stroke-width="0.12"/></g><g transform="translate(18.133 9.868)"><path d="M1.058.411A6.45,6.45,0,0,0,.5,0,3.7,3.7,0,0,0-.088-.282C-.36-.421-.513-.6-.871-.518c-.242.053-.127-.009-.2.206-.06.175-.136.407-.183.6a3.139,3.139,0,0,0-.122.848c0,.259-.078.649.2.806.22.125.762.018,1.022.018.361,0,.555.03.811-.231.166-.171.405-.619.695-.61C1.408.855,1.4.525,1.077.493L1.058.411" transform="translate(1.386 0.538)" fill="#2b2e34"/></g><g transform="translate(18.133 9.868)"><path d="M1.058.411A6.45,6.45,0,0,0,.5,0,3.7,3.7,0,0,0-.088-.282C-.36-.421-.513-.6-.871-.518c-.242.053-.127-.009-.2.206-.06.175-.136.407-.183.6a3.139,3.139,0,0,0-.122.848c0,.259-.078.649.2.806.22.125.762.018,1.022.018.361,0,.555.03.811-.231.166-.171.405-.619.695-.61C1.408.855,1.4.525,1.077.493L1.058.411" transform="translate(1.386 0.538)" fill="none" stroke="#2b2e34" stroke-width="0.12"/></g><g transform="translate(10.416 5.265)"><path d="M2.664,1.5c.018-.427-.331-.751-.55-1.068A8.021,8.021,0,0,0,1.306-.721,3.991,3.991,0,0,0,.252-1.465c-.183-.088-.33-.035-.5-.1s-.245-.21-.434-.275a1.972,1.972,0,0,0-1.622.111.584.584,0,0,1-.31.282.64.64,0,0,0-.206.108,4.533,4.533,0,0,0-.342.384A1.125,1.125,0,0,0-3.485.076c.035.737.813.476,1.266.753.227.139.312.391.476.575a2.614,2.614,0,0,0,.665.649,5.157,5.157,0,0,0,2.762.31,1.279,1.279,0,0,0,.43-.145A.379.379,0,0,1,2.3,2.061c.063.005.127.011.19.018.143-.109-.023-.585.268-.485Z" transform="translate(3.492 1.964)" fill="#2b2e34"/></g><g transform="translate(10.416 5.265)"><path d="M2.664,1.5c.018-.427-.331-.751-.55-1.068A8.021,8.021,0,0,0,1.306-.721,3.991,3.991,0,0,0,.252-1.465c-.183-.088-.33-.035-.5-.1s-.245-.21-.434-.275a1.972,1.972,0,0,0-1.622.111.584.584,0,0,1-.31.282.64.64,0,0,0-.206.108,4.533,4.533,0,0,0-.342.384A1.125,1.125,0,0,0-3.485.076c.035.737.813.476,1.266.753.227.139.312.391.476.575a2.614,2.614,0,0,0,.665.649,5.157,5.157,0,0,0,2.762.31,1.279,1.279,0,0,0,.43-.145A.379.379,0,0,1,2.3,2.061c.063.005.127.011.19.018.143-.109-.023-.585.268-.485Z" transform="translate(3.492 1.964)" fill="none" stroke="#2b2e34" stroke-width="0.12"/></g><g transform="translate(8.86 28.821)"><path d="M1.933,0c0,1.525.157,2.8,1.461,3.711a16.65,16.65,0,0,0,1.763,1.2c.48.254.945.552,1.4.85a4.88,4.88,0,0,1,1.5,1.474c.42.668.629,1.417,1.008,2.094a7.331,7.331,0,0,1,.481.765c.09.257,0,.361.055.591.1.442.136.866.229,1.31a10.17,10.17,0,0,1,.134,1.9A10.246,10.246,0,0,0,10.47,16.1c.21.862.587,1.652.788,2.473a3.184,3.184,0,0,1,.139.876c0,.46.125.628-.353.7-.654.1-.931-.564-1.384-.922A4.781,4.781,0,0,1,8.18,16.392c-.257-.984.007-1.987-.4-2.9a8.874,8.874,0,0,0-.434-1.1,3.609,3.609,0,0,0-1.215-1.141c-.462-.28-.936-.6-1.433-.834a4.583,4.583,0,0,0-.666-.294,5.631,5.631,0,0,1-.859-.587,5.252,5.252,0,0,0-.737-.372,5.076,5.076,0,0,0-1.38-.719,2.893,2.893,0,0,0-.74-.021c-.353-.051-.393-.275-.686-.383-.22.012-.441.023-.659.03-.25-.041-.219-.109-.418-.187-.6-.234-1.1-.547-1.082-1.225" transform="translate(2.533)" fill="none" stroke="#2b2e34" stroke-width="0.319"/></g><g transform="translate(21.17 47.1)"><path d="M0,0C.74.15.848,1.186.85,1.74.441,1.484.668,1.2.566.83.492.566.215.384.273.1L.279.259" fill="none" stroke="#2b2e34" stroke-width="0.12"/></g><g transform="translate(22.574 45.747)"><path d="M0,0C.9.314.679,1.347.492,1.886.056,1.546.444,1.315.439.936.435.661.143.423.316.153.3.208.284.263.268.316" fill="none" stroke="#2b2e34" stroke-width="0.12"/></g><g transform="translate(13.918 11.708)"><path d="M0,0A4.981,4.981,0,0,1,2.082.811a4.206,4.206,0,0,0,.779.36,4.832,4.832,0,0,0,1.128,0" transform="translate(0 0)" fill="none" stroke="#2b2e34" stroke-width="0.12"/></g><g transform="translate(11.587 6.027)"><path d="M.533.022C.326.022-.481-.11-.617.054c-.349.414.529.8.714.985.167.162.226.411.43.587a4.315,4.315,0,0,0,.548.3c.259.152.543.481.818.569C2.741,2.774,2.942,1.4,2.7.835,2.479.309,2.075.6,1.7.443,1.289.269,1.269-.066.728.022" transform="translate(0.698 0.029)" fill="#515858" stroke="#515858" stroke-width="0.12"/></g><g transform="translate(22.832 1.908)"><path d="M5.556,5.552a6.856,6.856,0,0,1-1.765-.169c-.227-.06-.437-.153-.661-.222s-.483-.088-.71-.167a6.891,6.891,0,0,1-.6-.483,1.442,1.442,0,0,1-.575-.367,4.169,4.169,0,0,0-1-.157c-.626-.125-1.088-.425-1.721-.561A2.462,2.462,0,0,1-1.15,1.488a5.184,5.184,0,0,1,.506-.3c.088-.063.16-.231.252-.31A13.629,13.629,0,0,0,.809.009c.291-.309.413-.758.691-1.1.1-.125.263-.217.358-.331.123-.148.19-.409.349-.58A15.694,15.694,0,0,1,3.814-3.49a4.395,4.395,0,0,0,.7-.739c.213-.314.266-.71.506-1.012C5.9-6.353,7.432-6.656,8.678-7.065a13.9,13.9,0,0,1,4.011-.127,3.605,3.605,0,0,1,3.265,1.6c.375.522.709,1.028,1.093,1.541a7.153,7.153,0,0,1,1.072,1.587c.167.423.018.814.141,1.245.115.4.488.682.617,1.095A3.706,3.706,0,0,1,18.94,1.1c-.009.608.049,1.231.014,1.837a11.986,11.986,0,0,1-1.03,3.023,5.491,5.491,0,0,0-.391,1.964c.005.658,0,1.315,0,1.973,0,.527-.051,1.075-.005,1.6.074.839.405,1.675.5,2.528a50.529,50.529,0,0,1,.035,5.4c0,1.911-.176,3.771-.176,5.682,0,1.132-.062,2.283-.009,3.413.028.635.164,1.266.233,1.9a10.039,10.039,0,0,0,.123,2.087c.2.428.58.606.679,1.146a20.231,20.231,0,0,1,.206,3.683c0,2.5.346,5.241-.4,7.637a29.842,29.842,0,0,1-.779,3.124c-.208.485-.543.906-.74,1.393a4.34,4.34,0,0,0-.2,1.833c.046,1.49.27,3.6-1.287,4.474a6.84,6.84,0,0,1-3.413.416,6.953,6.953,0,0,1-2.286-.837,5.746,5.746,0,0,0-1.692-.375,3.443,3.443,0,0,0-1.937.268,6.271,6.271,0,0,1-2.489.219A7.738,7.738,0,0,1,1.5,55.456a1.343,1.343,0,0,1,.03-2.214,6.608,6.608,0,0,0,.64-.2c.1-.056.264-.238.388-.314.3-.185.7-.167.876-.534A3.814,3.814,0,0,0,1.91,52.2a6.648,6.648,0,0,0-.758.361.577.577,0,0,1-.356.118c-.194.134-.227.337-.386.465-.485.393-1.56.249-2.161.4a27.875,27.875,0,0,1-3.295,1.1c-.88.115-1.807.485-2.13-.562a1.725,1.725,0,0,1,.862-2.137c2.1-1.532,4.9-.525,7.276-.832.383-1.042-.718-2.225-1.007-3.159A8.205,8.205,0,0,1-.08,45.685c0-.622-.141-1.174-.185-1.784a6.77,6.77,0,0,0-.167-1.592,12.464,12.464,0,0,1-.361-1.567c-.048-.317.206-1.294.021-1.527-.2-.256-.418-.093-.726.028-.4.159-.765.721-1.227.712-.435-.009-.809-.511-.885-.908,0-.194.005-.388.018-.582a4.25,4.25,0,0,0-.284-1.072,3.315,3.315,0,0,1-.078-.917c.007-.629-.009-1.259,0-1.89A5.938,5.938,0,0,1-3.417,32.4c.226-.633.293-1.3.52-1.941.219-.615.522-1.181.709-1.781.331-1.065,1.4-1.742,1.944-2.747.256-.465.471-.971.693-1.44A.8.8,0,0,1,.761,23.8l.2-.2a4.219,4.219,0,0,0,.011-.989,1.452,1.452,0,0,1,.187-.77,14.277,14.277,0,0,0,.2-1.483c.088-.76.4-1.484.538-2.234a11.47,11.47,0,0,0,.31-1.372,3.984,3.984,0,0,1,.585-1.768c.3-.592.407-1.294.691-1.892a8.417,8.417,0,0,0,.985-2.031q.032-.516.056-1.03c.093-.557.312-.619.649-.966a1.276,1.276,0,0,0,.421-.793,9.622,9.622,0,0,0,.314-2.72Z" transform="translate(7.283 7.277)" fill="#fff"/></g><g transform="translate(22.832 1.908)"><path d="M5.556,5.552a6.856,6.856,0,0,1-1.765-.169c-.227-.06-.437-.153-.661-.222s-.483-.088-.71-.167a6.891,6.891,0,0,1-.6-.483,1.442,1.442,0,0,1-.575-.367,4.169,4.169,0,0,0-1-.157c-.626-.125-1.088-.425-1.721-.561A2.462,2.462,0,0,1-1.15,1.488a5.184,5.184,0,0,1,.506-.3c.088-.063.16-.231.252-.31A13.629,13.629,0,0,0,.809.009c.291-.309.413-.758.691-1.1.1-.125.263-.217.358-.331.123-.148.19-.409.349-.58A15.694,15.694,0,0,1,3.814-3.49a4.395,4.395,0,0,0,.7-.739c.213-.314.266-.71.506-1.012C5.9-6.353,7.432-6.656,8.678-7.065a13.9,13.9,0,0,1,4.011-.127,3.605,3.605,0,0,1,3.265,1.6c.375.522.709,1.028,1.093,1.541a7.153,7.153,0,0,1,1.072,1.587c.167.423.018.814.141,1.245.115.4.488.682.617,1.095A3.706,3.706,0,0,1,18.94,1.1c-.009.608.049,1.231.014,1.837a11.986,11.986,0,0,1-1.03,3.023,5.491,5.491,0,0,0-.391,1.964c.005.658,0,1.315,0,1.973,0,.527-.051,1.075-.005,1.6.074.839.405,1.675.5,2.528a50.529,50.529,0,0,1,.035,5.4c0,1.911-.176,3.771-.176,5.682,0,1.132-.062,2.283-.009,3.413.028.635.164,1.266.233,1.9a10.039,10.039,0,0,0,.123,2.087c.2.428.58.606.679,1.146a20.231,20.231,0,0,1,.206,3.683c0,2.5.346,5.241-.4,7.637a29.842,29.842,0,0,1-.779,3.124c-.208.485-.543.906-.74,1.393a4.34,4.34,0,0,0-.2,1.833c.046,1.49.27,3.6-1.287,4.474a6.84,6.84,0,0,1-3.413.416,6.953,6.953,0,0,1-2.286-.837,5.746,5.746,0,0,0-1.692-.375,3.443,3.443,0,0,0-1.937.268,6.271,6.271,0,0,1-2.489.219A7.738,7.738,0,0,1,1.5,55.456a1.343,1.343,0,0,1,.03-2.214,6.608,6.608,0,0,0,.64-.2c.1-.056.264-.238.388-.314.3-.185.7-.167.876-.534A3.814,3.814,0,0,0,1.91,52.2a6.648,6.648,0,0,0-.758.361.577.577,0,0,1-.356.118c-.194.134-.227.337-.386.465-.485.393-1.56.249-2.161.4a27.875,27.875,0,0,1-3.295,1.1c-.88.115-1.807.485-2.13-.562a1.725,1.725,0,0,1,.862-2.137c2.1-1.532,4.9-.525,7.276-.832.383-1.042-.718-2.225-1.007-3.159A8.205,8.205,0,0,1-.08,45.685c0-.622-.141-1.174-.185-1.784a6.77,6.77,0,0,0-.167-1.592,12.464,12.464,0,0,1-.361-1.567c-.048-.317.206-1.294.021-1.527-.2-.256-.418-.093-.726.028-.4.159-.765.721-1.227.712-.435-.009-.809-.511-.885-.908,0-.194.005-.388.018-.582a4.25,4.25,0,0,0-.284-1.072,3.315,3.315,0,0,1-.078-.917c.007-.629-.009-1.259,0-1.89A5.938,5.938,0,0,1-3.417,32.4c.226-.633.293-1.3.52-1.941.219-.615.522-1.181.709-1.781.331-1.065,1.4-1.742,1.944-2.747.256-.465.471-.971.693-1.44A.8.8,0,0,1,.761,23.8l.2-.2a4.219,4.219,0,0,0,.011-.989,1.452,1.452,0,0,1,.187-.77,14.277,14.277,0,0,0,.2-1.483c.088-.76.4-1.484.538-2.234a11.47,11.47,0,0,0,.31-1.372,3.984,3.984,0,0,1,.585-1.768c.3-.592.407-1.294.691-1.892a8.417,8.417,0,0,0,.985-2.031q.032-.516.056-1.03c.093-.557.312-.619.649-.966a1.276,1.276,0,0,0,.421-.793,9.622,9.622,0,0,0,.314-2.72Z" transform="translate(7.283 7.277)" fill="none" stroke="#2b2e34" stroke-width="0.319"/></g><g transform="translate(42.93 5.885)"><path d="M1.109.04c.337.079.483.677.587.938a1.283,1.283,0,0,1,.1.464c.011.3.078.58.1.878a6.965,6.965,0,0,1-.116,2.225A4.064,4.064,0,0,1,1,5.768c-.176.264-.264.478-.661.559a1.069,1.069,0,0,1-.758-.085,1,1,0,0,1-.259-.391c-.157-.247-.386-.446-.536-.693a2.822,2.822,0,0,1-.234-1.331,1.838,1.838,0,0,1,.379-1.28,3.248,3.248,0,0,0,.414-.876A1.95,1.95,0,0,1,.008.525C.2.374.859.192.912-.053Z" transform="translate(1.454 0.053)" fill="#2b2e34"/></g><g transform="translate(42.93 5.885)"><path d="M1.109.04c.337.079.483.677.587.938a1.283,1.283,0,0,1,.1.464c.011.3.078.58.1.878a6.965,6.965,0,0,1-.116,2.225A4.064,4.064,0,0,1,1,5.768c-.176.264-.264.478-.661.559a1.069,1.069,0,0,1-.758-.085,1,1,0,0,1-.259-.391c-.157-.247-.386-.446-.536-.693a2.822,2.822,0,0,1-.234-1.331,1.838,1.838,0,0,1,.379-1.28,3.248,3.248,0,0,0,.414-.876A1.95,1.95,0,0,1,.008.525C.2.374.859.192.912-.053Z" transform="translate(1.454 0.053)" fill="none" stroke="#2b2e34" stroke-width="0.12"/></g><g transform="translate(28.699 10.301)"><path d="M.138.411A6.45,6.45,0,0,1,.7,0a3.7,3.7,0,0,1,.587-.279c.271-.139.425-.316.783-.236.242.055.127-.009.2.206.06.175.136.407.183.6a3.139,3.139,0,0,1,.122.848c0,.259.078.649-.2.806-.22.125-.762.018-1.022.018-.361,0-.555.03-.811-.231-.166-.171-.405-.619-.695-.61C-.213.855-.2.525.119.493.126.465.131.439.138.411" transform="translate(0.181 0.538)" fill="#2b2e34"/></g><g transform="translate(28.699 10.301)"><path d="M.138.411A6.45,6.45,0,0,1,.7,0a3.7,3.7,0,0,1,.587-.279c.271-.139.425-.316.783-.236.242.055.127-.009.2.206.06.175.136.407.183.6a3.139,3.139,0,0,1,.122.848c0,.259.078.649-.2.806-.22.125-.762.018-1.022.018-.361,0-.555.03-.811-.231-.166-.171-.405-.619-.695-.61C-.213.855-.2.525.119.493.126.465.131.439.138.411" transform="translate(0.181 0.538)" fill="none" stroke="#2b2e34" stroke-width="0.12"/></g><g transform="translate(32.931 5.698)"><path d="M.04,1.5C.022,1.072.371.748.59.43A8.02,8.02,0,0,1,1.4-.721a3.991,3.991,0,0,1,1.054-.744c.183-.088.33-.035.5-.1s.245-.21.434-.275a1.972,1.972,0,0,1,1.622.111.584.584,0,0,0,.31.282.64.64,0,0,1,.206.108,4.533,4.533,0,0,1,.342.384A1.125,1.125,0,0,1,6.189.076c-.035.737-.813.476-1.266.753-.227.139-.312.391-.476.575a2.614,2.614,0,0,1-.665.649,5.157,5.157,0,0,1-2.762.31,1.279,1.279,0,0,1-.43-.145.379.379,0,0,0-.183-.157c-.063.005-.127.011-.19.018-.143-.109.023-.585-.268-.485Z" transform="translate(0.052 1.964)" fill="#2b2e34"/></g><g transform="translate(32.931 5.698)"><path d="M.04,1.5C.022,1.072.371.748.59.43A8.02,8.02,0,0,1,1.4-.721a3.991,3.991,0,0,1,1.054-.744c.183-.088.33-.035.5-.1s.245-.21.434-.275a1.972,1.972,0,0,1,1.622.111.584.584,0,0,0,.31.282.64.64,0,0,1,.206.108,4.533,4.533,0,0,1,.342.384A1.125,1.125,0,0,1,6.189.076c-.035.737-.813.476-1.266.753-.227.139-.312.391-.476.575a2.614,2.614,0,0,1-.665.649,5.157,5.157,0,0,1-2.762.31,1.279,1.279,0,0,1-.43-.145.379.379,0,0,0-.183-.157c-.063.005-.127.011-.19.018-.143-.109.023-.585-.268-.485Z" transform="translate(0.052 1.964)" fill="none" stroke="#2b2e34" stroke-width="0.12"/></g><g transform="translate(26.789 29.254)"><path d="M4.1,0c0,1.525-.157,2.8-1.461,3.711A16.65,16.65,0,0,1,.878,4.91c-.48.254-.945.552-1.4.85a4.9,4.9,0,0,0-1.5,1.474c-.42.668-.629,1.417-1.008,2.094a7.331,7.331,0,0,0-.481.765c-.09.257,0,.361-.055.591-.1.442-.136.866-.229,1.31a10.17,10.17,0,0,0-.134,1.9A10.246,10.246,0,0,1-4.435,16.1c-.21.862-.587,1.652-.788,2.473a3.184,3.184,0,0,0-.139.876c0,.46-.125.628.353.7.654.1.931-.564,1.384-.922a4.781,4.781,0,0,0,1.481-2.838c.257-.984-.007-1.987.4-2.9a8.874,8.874,0,0,1,.434-1.1A3.609,3.609,0,0,1-.093,11.251c.462-.28.936-.6,1.433-.834a4.583,4.583,0,0,1,.666-.294,5.631,5.631,0,0,0,.859-.587A5.252,5.252,0,0,1,3.6,9.164a5.076,5.076,0,0,1,1.38-.719,2.893,2.893,0,0,1,.74-.021c.351-.051.393-.275.686-.383.22.012.441.023.659.03.25-.041.219-.109.418-.187.6-.234,1.1-.547,1.082-1.225" transform="translate(5.377)" fill="none" stroke="#2b2e34" stroke-width="0.319"/></g><g transform="translate(27.575 47.534)"><path d="M.368,0c-.74.15-.848,1.186-.85,1.74C-.073,1.484-.3,1.2-.2.83-.124.566.153.384.094.1L.089.259" transform="translate(0.482)" fill="none" stroke="#2b2e34" stroke-width="0.12"/></g><g transform="translate(26.362 46.181)"><path d="M.285,0c-.9.314-.679,1.347-.492,1.886.435-.34.048-.571.053-.95,0-.275.3-.513.123-.783C-.015.208,0,.263.017.316" transform="translate(0.374)" fill="none" stroke="#2b2e34" stroke-width="0.12"/></g><g transform="translate(31.687 12.141)"><path d="M1.726,0A4.981,4.981,0,0,0-.356.811a4.206,4.206,0,0,1-.779.36,4.832,4.832,0,0,1-1.128,0" transform="translate(2.263 0)" fill="none" stroke="#2b2e34" stroke-width="0.12"/></g><g transform="translate(34.513 6.461)"><path d="M.98.022c.206,0,1.014-.132,1.149.032.349.414-.529.8-.714.985-.167.162-.226.411-.43.587a4.316,4.316,0,0,1-.548.3c-.259.152-.543.481-.818.569C-1.229,2.774-1.43,1.4-1.189.835-.967.309-.563.6-.186.443.223.269.243-.066.784.022" transform="translate(1.284 0.029)" fill="#515858" stroke="#515858" stroke-width="0.12"/></g><g transform="translate(35.435 7.232)"><path d="M.074,0C-.082.2-.2.613.041.739.027.622.111.444.1.326L.224.3" transform="translate(0.098)" fill="#2b2e34"/></g><g transform="translate(35.435 7.232)"><path d="M.074,0C-.082.2-.2.613.041.739.027.622.111.444.1.326L.224.3" transform="translate(0.098)" fill="none" stroke="#2b2e34" stroke-width="0.12"/></g><g transform="translate(13.22 6.706)"><path d="M.1,0C.066.312-.229.7-.109,1.038c.3.051.726-.018.67-.444C.528.349.172.213-.045.226" transform="translate(0.137)" fill="#2b2e34"/></g><g transform="translate(13.22 6.706)"><path d="M.1,0C.066.312-.229.7-.109,1.038c.3.051.726-.018.67-.444C.528.349.172.213-.045.226" transform="translate(0.137)" fill="none" stroke="#2b2e34" stroke-width="0.12"/></g><g transform="translate(13.123 10.989)"><path d="M0,.381A6.568,6.568,0,0,0,.933.219c.323-.111.4-.428.576-.718" transform="translate(0 0.499)" fill="none" stroke="#2b2e34" stroke-width="0.138"/></g><g transform="translate(35.83 11.751)"><path d="M.008.033V.016c-.1.314.224.638.256.947" transform="translate(0.01 0.044)" fill="none" stroke="#2b2e34" stroke-width="0.138"/></g></g></g></svg>