<svg xmlns="http://www.w3.org/2000/svg" xmlns:xlink="http://www.w3.org/1999/xlink" width="528.265" height="470.012" viewBox="0 0 528.265 470.012"><defs><clipPath id="a"><path d="M0,0H330.714V436.134H0Z" transform="translate(0 0)" fill="none"/></clipPath><clipPath id="b"><rect width="106.59" height="103.167" fill="none"/></clipPath><clipPath id="c"><rect width="26.935" height="18.659" fill="none"/></clipPath><clipPath id="d"><rect width="26.935" height="18.658" fill="none"/></clipPath><clipPath id="e"><rect width="18.615" height="13.562" fill="none"/></clipPath></defs><g transform="translate(0 306.633) rotate(-68)"><g transform="translate(0 0)" clip-path="url(#a)"><g transform="translate(37.809 104.35)"><path d="M247.337,0c-7.007,2.479-15.016,4.965-21.1,9.054-4.094,2.751-5.519,5.758-10.513,7.955a44.076,44.076,0,0,0-7.908,4.21c-6.85,4.591-14.454,7.479-22.393,10.216-4.337,1.495-8.378,3.653-12.569,5.486-4.808,2.1-9.589,3.843-14.564,5.56-5.449,1.879-10.181,4.421-15.409,6.691-8.468,3.675-16.837,7.727-25.067,11.824-9.026,4.493-18.584,8.548-27,13.833C84.166,79,76.6,82.754,70.729,87.629c-13.865,11.511-20.423,26.506-34.782,37.7C25.83,133.22,12.552,138.632,0,143.026" transform="translate(0 0)" fill="none" stroke="#ff9ea8" stroke-width="1.125"/></g><g transform="translate(74.643 97.19)"><path d="M206.669,0a33.977,33.977,0,0,0-8.313,4.325,58.835,58.835,0,0,0-7.621,6.4,110.017,110.017,0,0,1-16.5,12.835c-4.5,2.886-8.015,6.876-12.561,9.769-5.3,3.373-10.91,6.2-16.452,9.152a120.887,120.887,0,0,0-19.963,13.37,66.241,66.241,0,0,0-17,21.138c-4.441,8.385-11.686,14.5-18.2,21.279-8.183,8.518-14.981,18.239-22.694,27.162-3.707,4.289-7.216,8.613-11.057,12.787-4.487,4.876-6.825,11.993-8.522,18.308a55.5,55.5,0,0,1-3.318,8.883c-1.239,2.749-1.176,5.637-1.885,8.542-.946,3.87-2.5,6.724-2.532,10.823-.019,2.423-.76,4.6-.851,7-.075,1.974.574,3.774-.111,5.7-1.878,5.265-9.893,9.373-14.982,10.69-.669,3.823,2.153,9.318-.461,12.8-1.182,1.577-3.963,1.824-5.708,2.486-4.452,1.689-7.905,6.313-10.837,10-1.383,1.739-4.53,6.244-7.094,6.488" transform="translate(0 0)" fill="none" stroke="#ff9ea8" stroke-width="1.125"/></g><g transform="translate(38.871 88.517)"><path d="M234.316,0c-2.623.929-5.253,1.838-7.87,2.782-2.413.871-4.712,2-7.285,2.3a75.119,75.119,0,0,0-17.887,4.441c-8.819,3.186-17.751,6.057-26.568,9.237A102.627,102.627,0,0,0,151.8,29.283a185.688,185.688,0,0,0-17.025,13.237c-6.634,5.4-12.557,9.841-17.592,16.808-5.206,7.2-9.619,15.03-14.363,22.544C96.92,91.21,89.947,99.666,83.884,108.9c-7.566,11.519-16.779,21.51-25.334,32.261-7.142,8.975-16.6,18.15-19.46,29.537-.354,1.409-1.726,4.761.509,5.247-3.627,6.85-10.929,12.4-16.062,18.336-2.893,3.344-5.6,2.729-8.97,4.8-1.868,1.149-1.613,1.192-2.247,3.948a27.026,27.026,0,0,1-3.8,8.84A66.5,66.5,0,0,1,0,223.018" transform="translate(0 0)" fill="none" stroke="#ff9ea8" stroke-width="1.125"/></g><g transform="translate(16.945 75.729)"><path d="M249.548,0C239.2,3.663,228.839,8.132,218.227,10.867c-7.3,1.88-14.611,2.342-22.071,3.128-9.907,1.045-19.193,3.559-28.729,6.351C145.435,26.783,119.151,33.327,104.6,52.8c-5.42,7.254-9.335,17.225-11.467,25.951-1.93,7.9-1.8,15.782-2.466,23.812-.64,7.689-1.562,13.941-5.233,20.661-3.177,5.816-6.313,11.11-10.972,15.884-9.751,9.99-23.193,16.545-35.888,21.959-11.338,4.834-26.438,12.237-38.57,6.7" transform="translate(0 0)" fill="none" stroke="#ff9ea8" stroke-width="1.125"/></g><g transform="translate(17.561 23.959)"><path d="M232.043,0c1.768,2.549-1.432,4.892-2.794,6.732a123.385,123.385,0,0,1-9.6,12.128,100.425,100.425,0,0,1-12.638,11.009c-4.219,3.12-9.474,4.984-13.955,7.72-10.123,6.18-20.6,11.534-29.753,19.114-5.445,4.509-7.8,9.3-10.689,15.489-1.564,3.354-3.962,6.162-5.514,9.5-1.93,4.155-2.24,8.761-4.381,12.857-4.313,8.247-10.877,14.457-17.744,20.525-7.275,6.429-14.453,13.137-22.316,18.862-14.474,10.537-30.787,18.55-44.654,29.939A56.155,56.155,0,0,0,44.716,179.3a78.634,78.634,0,0,1-8.9,12.229A13.987,13.987,0,0,1,29.6,195.21c-10.09,3.407-19.508,1.99-29.6-.428" transform="translate(0 0)" fill="none" stroke="#ff9ea8" stroke-width="1.125"/></g><g transform="translate(59.599 29.238)"><path d="M195.484,0c.787,1.688-1.28,3.84-2.007,5.062-2.9,4.881-5.143,10.059-7.62,15.157-3.154,6.49-5.9,14.173-10.009,20.139-4.683,6.8-12.272,13.078-18.919,17.94-4.431,3.241-9.023,5.948-13.141,9.618-5.346,4.765-10.557,9.572-16.05,14.188-6.576,5.527-14.027,10.08-20.218,16.039a139.177,139.177,0,0,0-18.2,21.175c-5.12,7.426-10.163,14.586-13.482,23.04-3.732,9.506-6.7,19.168-11.046,28.452-4.111,8.778-9.529,16.787-13.718,25.515-4.467,9.308-6.684,19.6-12.837,28-5.825,7.951-12.248,16.574-21.713,20.26-5.542,2.159-10.911,4.567-16.524,6.55" transform="translate(0 0)" fill="none" stroke="#ff9ea8" stroke-width="1.125"/></g><g transform="translate(61.163 54.708)"><path d="M201.5,0a66.894,66.894,0,0,1-7.075,8.429,67.232,67.232,0,0,0-6.7,7.253c-4.746,6.3-9.668,10.953-15.472,16.406-9.171,8.615-17.47,18.074-26.317,27.012-8.641,8.728-17.85,17.947-23.96,28.737-6.248,11.035-8.445,23.792-11.023,36.016-2.422,11.48-4.762,23.15-8.214,34.376a53.962,53.962,0,0,1-6.782,15.78c-5.581,8.623-13.439,16.166-19.891,24.115-7.52,9.263-14.549,18.814-22.692,27.556-7.042,7.559-14.193,15.013-21.216,22.594-10.2,11.01-22.1,20.57-28.952,34.225-6.21,12.384-1.923,28.1.723,40.721,4.175,19.918,11.07,38.92,17.852,58.045" transform="translate(0 0)" fill="none" stroke="#ff9ea8" stroke-width="1.125"/></g><g transform="translate(0.03 17.425)"><path d="M253.758,0a15.4,15.4,0,0,0-3.884,1.856c-6.634,3.888-12.28,9.092-19.153,12.688-5.7,2.983-11.639,5.622-17.288,8.687-7.3,3.957-13.863,9.895-20.79,14.463C184.629,42.976,176.585,48.255,169,54.148a43.986,43.986,0,0,0-8.452,7.934c-4.061,4.16-8.527,7.613-12.918,11.388-6.974,6-13.108,12.623-20.511,18.151-7.523,5.617-15.324,11.063-23.26,16.08-5.611,3.546-10.088,7.306-12.214,13.851-2.532,7.8-3.525,16-6.244,23.827-2.65,7.631-8.043,11.861-14.16,16.959-6.483,5.405-14.186,9.674-21.792,13.288-6.563,3.119-13.381,6.074-20.2,8.584-5.344,1.967-11.212,4.819-16.785,5.945a7.744,7.744,0,0,1-4.21-.132c-2.771-.958-5.258-5.415-8.247-5.6" transform="translate(0 0)" fill="none" stroke="#ff9ea8" stroke-width="1.125"/></g><g transform="translate(39.133 21.166)"><path d="M.287,273.572c-1.489-3.334,3.222-9.51,4.9-12.134,3.08-4.81,7.228-8.829,10.551-13.481,3.864-5.408,7.791-10.645,10.659-16.668,2.877-6.043,4.281-11.838,5.64-18.384a68.488,68.488,0,0,1,3.716-14.033q3.3-6.861,6.442-13.8a42.661,42.661,0,0,1,4.671-10.13q3.258-3.714,6.375-7.546c6.614-7.981,14-13.359,22.292-19.471,8.712-6.424,15.171-15.224,21.318-24.027,6.653-9.531,13.319-18.461,17.217-29.5,4.347-12.308,6.724-24.86,14.331-35.759,5.358-7.677,12.586-15.957,20.777-20.714,4.675-2.715,10.075-4.348,15.033-6.488,4.716-2.036,9.373-4.219,14.046-6.354a86.491,86.491,0,0,0,21.68-13.646C203.61,8.281,208.356,4.686,210.2,0" transform="translate(0)" fill="none" stroke="#ff9ea8" stroke-width="1.125"/></g><g transform="translate(43.483 29.732)"><path d="M208.166,0c-2.838,1.235-4.181,6.182-5.5,8.749-1.485,2.9-2.138,3.571-4.885,5.338-9.454,6.081-15.855,15.157-24.256,22.377-11.109,9.547-22.126,20.2-34.738,27.711-3.665,2.183-7.025,4.485-10.579,6.844q-4.7,2.919-9.211,6.118c-5.421,3.831-7.852,5.974-10.053,12.3-4.793,13.786-6.8,28.322-10.251,42.446-1.815,7.425-3.169,14.962-7.887,21.184-5.727,7.553-13.822,13.067-21.275,18.741-11.948,9.094-23.543,18.05-34.612,28.221A104.93,104.93,0,0,0,6.339,244.12c-.949,2.893-2.816,7.322-6.339,7.9" transform="translate(0 0)" fill="none" stroke="#ff9ea8" stroke-width="1.125"/></g><g transform="translate(71.41 92.593)"><path d="M202.5,0a124.63,124.63,0,0,0-13.859,5.634c-3.713,1.832-7.3,3.956-10.928,6.051-5.46,3.149-11.721,5.5-16.674,9.455a46.571,46.571,0,0,1-4.643,3.943c-4.525,2.974-10.638,4.749-15.54,6.808-11.178,4.7-20.447,9.8-28.993,18.485-5.656,5.749-10.425,10.759-14.348,17.935-2.545,4.656-4.569,9.607-7.525,14.04-2.095,3.14-4.669,5.6-6.611,8.872q-2.577,5.262-5.591,10.288c-2.647,4.262-5.777,8.213-8.678,12.3a60.065,60.065,0,0,1-7.386,9.5c-3.706,3.451-8,6.345-11.784,9.747-9.982,8.985-19.91,17.852-24.328,30.916q-.973,3.351-1.959,6.7c-1.747,4.8-5,8.874-7.245,13.437-3.644,7.4-6,15.085-9.12,22.681C5.119,212.057,3.235,216.814,0,221.136" transform="translate(0 0)" fill="none" stroke="#ff9ea8" stroke-width="1.125"/></g><g transform="translate(123.818 80.098)"><path d="M150.719,0q-23.493,8.319-46.985,16.639c-8.484,3.006-17.332,5.515-25.6,9.078-11.356,4.9-21.164,13.9-30.362,21.982C40.286,54.277,34.5,61.49,35.353,71.967c.9,11.094,7.581,20.7,8.23,31.816.392,6.711-1.527,10.689-4.979,16.34-4.666,7.638-10.11,14.792-14.918,22.348-4.332,6.809-9.891,12.368-14.5,18.936C4.17,168.553-1.163,178.054.813,186.894,2.671,195.206,6.1,203.315,9,211.306c2.938,8.109,9.705,20.144,6.159,29.017C12.887,246,5.286,249.385,0,251.165" transform="translate(0 0)" fill="none" stroke="#ff9ea8" stroke-width="1.125"/></g><g transform="translate(60.951 71.198)"><path d="M206.1,0c-5.927,2.1-11.847,4.216-17.785,6.284-8.021,2.793-15.631,6.317-23.479,9.547A129.769,129.769,0,0,0,147.967,23.2c-6.871,4.689-10.008,11.859-13.44,19.12-6.387,13.51-9.056,26.576-9.966,41.441A66.714,66.714,0,0,1,123,98.92c-1.583,5.989-4.784,11.411-8.015,16.621a60.961,60.961,0,0,1-16.517,17.735c-8.054,6.053-17.361,9.73-25.712,15.238-9.825,6.479-6.354,19.244-4.012,28.627,1.14,4.57,1.278,7.5-2.284,10.952A100.666,100.666,0,0,1,54.9,195.373a290.406,290.406,0,0,0-29.165,20.439A157.719,157.719,0,0,0,8.656,232.32a26.245,26.245,0,0,0-7.5,10.17,15.851,15.851,0,0,0-.965,8.278,49.549,49.549,0,0,0,2.394,8.266" transform="translate(0 0)" fill="none" stroke="#ff9ea8" stroke-width="1.125"/></g><g transform="translate(226.71 0.48)"><path d="M44.335,116.949c2.862-1.633,10.447-1.582,12.962-1.017,2.372.533,3.321,1.738,6.234,1.294,2.243-.341,4.635-1.5,6.8-2.264,3.966-1.4,10.528-2.788,13.611-5.312,1.093-.9,1.4-1.95,2.1-2.98.9-1.3,1.636-1.955,2.683-3.255,1.083-1.345,1.344-3.983,3.262-4.911-.492-2.534.065-2.6,1.57-4.916a50.054,50.054,0,0,0,2.508-4.906c.837-1.663,2.291-2.961,3.373-4.581,1.11-1.659,1.015-2.73,1.553-4.325,1.448-4.292,2.818-6.707,2.476-11.156-.356-4.639-1.919-8.957-1.931-13.617-.011-4.241-1.9-8.067-3.292-11.989-1.676-4.734-2.544-10.643-5.177-14.94C92.023,26.36,90.3,25.754,88.609,24.5c-2.36-1.746-4.1-3.939-6.535-5.628a100.135,100.135,0,0,0-9.6-5.544c-7.2-3.889-13.1-9.191-21.341-11.954A35.464,35.464,0,0,0,38.581.126c-1.1.12-1.835.585-2.858.677C33.673.987,32.032.116,30.106.1c-2.59-.027-5.253.688-7.911,1.076-4.226.617-4.453,1.427-7.012,4.093-1.733,1.8-3.655,2.541-5.047,4.688-.964,1.487-1.413,2.525-2.514,3.966a28.527,28.527,0,0,1-3.885,4.2C.852,20.755-.514,21.483.176,24.612a11.27,11.27,0,0,0,4.187,7.05,12.792,12.792,0,0,1,5.3,10.054c.016,2.421-.353,4.356-.084,6.7.079.7.58,1.1.489,1.852C10.041,50.5,8.4,51.349,8.2,52c-.705,2.362.952,7.222,2.082,9.233,1.3,2.323.967,1.24,3.488,1.73a8.431,8.431,0,0,1,3.968,1.623c1.964,2.026,1.508,3.8,1.171,6.3-.323,2.392.983,4.734.965,7.129-.009,1.146-1.036,2.045-.68,3.269.445,1.53,1.2,1.011,2.252,1.909,2.65,2.271,8.23,2.924,8.24,6.321-3.073,1.213-3.458,5.614-2.9,7.493.746,2.5.8,1.786,3.351,2.584,1.792.56,5.154,1.821,6.106,3.084,2.045,2.711-2.617,5.2,1.026,7.182,1.06.576,3.663.445,4.528,1.067,1.354.973,1.569,3.279,2.079,4.734Z" transform="translate(0 0)" fill="#ff9ea8"/></g><g transform="translate(226.71 0.48)"><path d="M44.335,116.949c2.862-1.633,10.447-1.582,12.962-1.017,2.372.533,3.321,1.738,6.234,1.294,2.243-.341,4.635-1.5,6.8-2.264,3.966-1.4,10.528-2.788,13.611-5.312,1.093-.9,1.4-1.95,2.1-2.98.9-1.3,1.636-1.955,2.683-3.255,1.083-1.345,1.344-3.983,3.262-4.911-.492-2.534.065-2.6,1.57-4.916a50.054,50.054,0,0,0,2.508-4.906c.837-1.663,2.291-2.961,3.373-4.581,1.11-1.659,1.015-2.73,1.553-4.325,1.448-4.292,2.818-6.707,2.476-11.156-.356-4.639-1.919-8.957-1.931-13.617-.011-4.241-1.9-8.067-3.292-11.989-1.676-4.734-2.544-10.643-5.177-14.94C92.023,26.36,90.3,25.754,88.609,24.5c-2.36-1.746-4.1-3.939-6.535-5.628a100.135,100.135,0,0,0-9.6-5.544c-7.2-3.889-13.1-9.191-21.341-11.954A35.464,35.464,0,0,0,38.581.126c-1.1.12-1.835.585-2.858.677C33.673.987,32.032.116,30.106.1c-2.59-.027-5.253.688-7.911,1.076-4.226.617-4.453,1.427-7.012,4.093-1.733,1.8-3.655,2.541-5.047,4.688-.964,1.487-1.413,2.525-2.514,3.966a28.527,28.527,0,0,1-3.885,4.2C.852,20.755-.514,21.483.176,24.612a11.27,11.27,0,0,0,4.187,7.05,12.792,12.792,0,0,1,5.3,10.054c.016,2.421-.353,4.356-.084,6.7.079.7.58,1.1.489,1.852C10.041,50.5,8.4,51.349,8.2,52c-.705,2.362.952,7.222,2.082,9.233,1.3,2.323.967,1.24,3.488,1.73a8.431,8.431,0,0,1,3.968,1.623c1.964,2.026,1.508,3.8,1.171,6.3-.323,2.392.983,4.734.965,7.129-.009,1.146-1.036,2.045-.68,3.269.445,1.53,1.2,1.011,2.252,1.909,2.65,2.271,8.23,2.924,8.24,6.321-3.073,1.213-3.458,5.614-2.9,7.493.746,2.5.8,1.786,3.351,2.584,1.792.56,5.154,1.821,6.106,3.084,2.045,2.711-2.617,5.2,1.026,7.182,1.06.576,3.663.445,4.528,1.067,1.354.973,1.569,3.279,2.079,4.734Z" transform="translate(0 0)" fill="none" stroke="#ff9ea8" stroke-width="1.125"/></g><g transform="translate(228.612 -5.606)" opacity="0.5"><g transform="translate(0 0)"><g clip-path="url(#b)"><g transform="translate(8.244 22.534)"><path d="M2.138,3.57C9.272,1.027,16.056.317,23.711.052,32.051-.237,42.241.632,50,3.81a38.388,38.388,0,0,1,9.269,5.1c2.31,1.9,3.9,5.287,6.143,7.374,2.573,2.4,5.052,3.211,7.246,5.881a19.036,19.036,0,0,0,4.532,5.813c2.377,2.1,3.5,2.167,4.964,5.254C84,37.116,88.715,45.218,85.607,48.672,76.063,59.279,68.775,35.895,65.59,30.888c-2.408-3.786-4.011-8.147-7.448-11.043-2.118-1.785-4.051-4.1-6.208-5.8-2.634-2.083-4.738-1.8-7.714-2.543-3.535-.881-6.948-1.716-10.547-2.377-4.055-.745-8.12-1.3-12.2-1.855-2.7-.364-6.2-1.929-8.9-1.8-2.369.111-4.2,1.657-6.491,1.78-1.8.1-3.477-1.165-5.07-.454A5.661,5.661,0,0,1,0,4.327" transform="translate(0 0)" fill="#fff" stroke="#fff" stroke-width="1.125"/></g></g></g></g><g transform="translate(253.263 81.142)" opacity="0.8"><g transform="translate(0 0)"><g clip-path="url(#c)"><g transform="translate(9.12 2.198)"><path d="M.557.938c1.742-2.258,7.43.009,8.388,2.1,1.629,3.56-3.5,6.429-6.39,5.82,0,0-3.989-5.339-2-7.92" transform="translate(0 0)" fill="#fff"/></g><g transform="translate(9.12 2.198)"><path d="M.557.938c1.742-2.258,7.43.009,8.388,2.1,1.629,3.56-3.5,6.429-6.39,5.82C2.554,8.858-1.434,3.519.557.938Z" transform="translate(0 0)" fill="none" stroke="#fff" stroke-width="1.125"/></g></g></g></g><g transform="translate(246.449 61.899)" opacity="0.8"><g transform="translate(0 0)"><g clip-path="url(#d)"><g transform="translate(9.12 2.198)"><path d="M.557.938c1.742-2.258,7.43.009,8.388,2.1,1.629,3.56-3.5,6.429-6.39,5.82,0,0-3.989-5.339-2-7.92" transform="translate(0 0)" fill="#fff"/></g><g transform="translate(9.12 2.198)"><path d="M.557.938c1.742-2.258,7.43.009,8.388,2.1,1.629,3.56-3.5,6.429-6.39,5.82C2.554,8.858-1.434,3.519.557.938Z" transform="translate(0 0)" fill="none" stroke="#fff" stroke-width="1.125"/></g></g></g></g><g transform="translate(258.652 83.074)" opacity="0.8"><g transform="translate(0 0)"><g clip-path="url(#e)"><g transform="translate(8.222 4.045)"><path d="M.12.008C.232-.031.373.077.434.25S.454.6.342.635.089.567.029.394.008.047.12.008" transform="translate(0 0)" fill="#2b2e34"/></g><g transform="translate(8.222 4.045)"><path d="M.12.008C.232-.031.373.077.434.25S.454.6.342.635.089.567.029.394.008.047.12.008Z" transform="translate(0 0)" fill="none" stroke="#2b2e34" stroke-width="1.125"/></g></g></g></g><g transform="translate(251.196 64.058)" opacity="0.8"><g transform="translate(0 0)"><g clip-path="url(#e)"><g transform="translate(8.222 4.045)"><path d="M.12.008C.232-.031.373.077.434.25S.454.6.342.635.089.567.029.394.008.047.12.008" transform="translate(0 0)" fill="#2b2e34"/></g><g transform="translate(8.222 4.045)"><path d="M.12.008C.232-.031.373.077.434.25S.454.6.342.635.089.567.029.394.008.047.12.008Z" transform="translate(0 0)" fill="none" stroke="#2b2e34" stroke-width="1.125"/></g></g></g></g></g></g></svg>